<svg width="82" height="81" viewBox="0 0 82 81" fill="none" xmlns="http://www.w3.org/2000/svg">
<path d="M47.3489 46.3335C46.6004 47.1626 45.695 47.8361 44.6846 48.3153C43.6742 48.7944 42.5788 49.0698 41.4614 49.1256C40.3439 49.1814 39.2264 49.0164 38.1731 48.6403C37.1198 48.2642 36.1514 47.6842 35.3236 46.9338C33.6533 45.4144 32.6528 43.2986 32.54 41.0471C32.4272 38.7957 33.2114 36.591 34.7216 34.9133C35.4712 34.086 36.3771 33.4142 37.3873 32.9362C38.3976 32.4582 39.4926 32.1835 40.6094 32.1278C41.7263 32.072 42.8432 32.2364 43.8963 32.6113C44.9494 32.9863 45.9181 33.5646 46.7468 34.3131C48.4209 35.8302 49.4241 37.9467 49.5369 40.1994C49.6498 42.4521 48.8631 44.6577 47.3489 46.3335Z" fill="#C4D4FF"/>
<path d="M21.2699 40.9149C21.2699 40.9149 26.0229 38.514 28.7639 27.8045C31.5048 17.0951 41.8665 12.1353 41.8665 12.1353C41.8665 12.1353 19.8916 -9.61532 3.25586 24.4874C7.39416 25.5112 11.21 27.5504 14.3562 30.4195C17.5024 33.2886 19.8791 36.8965 21.2699 40.9149Z" fill="#C4D4FF"/>
<path d="M23.3149 3.74764C23.3149 3.74764 40.2515 0.430552 50.2488 21.5809C50.2488 21.5809 61.9413 25.3718 72.2237 14.536C72.2237 14.536 55.0336 -8.90466 23.2832 3.74764" fill="#C4D4FF"/>
<path d="M50.9302 56.2736C50.9302 56.2736 46.4623 53.383 35.7996 56.3684C25.137 59.3538 15.6784 53.0039 15.6784 53.0039C15.6784 53.0039 7.75669 82.8419 45.781 80.1566C45.781 80.1566 41.2974 67.1094 50.9777 56.2736" fill="#C4D4FF"/>
<path d="M17.659 73.8174C17.659 73.8174 6.31508 60.8649 19.687 41.6259C19.687 41.6259 17.1045 29.637 2.56018 26.1777C2.56018 26.1777 -9.19572 52.746 17.6749 73.8174" fill="#C4D4FF"/>
<path d="M50.1063 23.4916C50.1063 23.4916 49.7894 28.7674 57.7111 36.5072C65.6329 44.2471 64.8883 55.6199 64.8883 55.6199C64.8883 55.6199 94.7532 47.501 73.4437 16.1309C70.4924 19.225 66.809 21.5305 62.7314 22.8359C58.6537 24.1414 54.3126 24.4048 50.1063 23.6022" fill="#C4D4FF"/>
<path d="M81.4767 43.791C81.4767 43.791 75.8998 60.0605 52.5148 58.165C52.5148 58.165 43.3889 66.363 47.6667 80.658C47.6667 80.658 76.6128 77.4989 81.4767 43.791Z" fill="#C4D4FF"/>
</svg>
