<svg width="122" height="46" viewBox="0 0 122 46" fill="none" xmlns="http://www.w3.org/2000/svg">
<g clip-path="url(#clip0_5_2)">
<mask id="path-1-outside-1_5_2" maskUnits="userSpaceOnUse" x="53" y="2" width="14" height="16" fill="black">
<rect fill="white" x="53" y="2" width="14" height="16"/>
<path d="M64.355 17L62.721 12.801H57.344L55.729 17H54L59.301 3.377H60.84L66.122 17H64.355ZM60.688 7.177C60.65 7.07567 60.5867 6.892 60.498 6.626C60.4093 6.36 60.3207 6.08767 60.232 5.809C60.156 5.51767 60.0927 5.296 60.042 5.144C59.9787 5.39733 59.909 5.657 59.833 5.923C59.7697 6.17633 59.7 6.41067 59.624 6.626C59.5607 6.84133 59.5037 7.025 59.453 7.177L57.914 11.281H62.208L60.688 7.177Z"/>
</mask>
<path d="M64.355 17L62.721 12.801H57.344L55.729 17H54L59.301 3.377H60.84L66.122 17H64.355ZM60.688 7.177C60.65 7.07567 60.5867 6.892 60.498 6.626C60.4093 6.36 60.3207 6.08767 60.232 5.809C60.156 5.51767 60.0927 5.296 60.042 5.144C59.9787 5.39733 59.909 5.657 59.833 5.923C59.7697 6.17633 59.7 6.41067 59.624 6.626C59.5607 6.84133 59.5037 7.025 59.453 7.177L57.914 11.281H62.208L60.688 7.177Z" fill="white"/>
<path d="M64.355 17L63.889 17.1813L64.013 17.5H64.355V17ZM62.721 12.801L63.187 12.6197L63.063 12.301H62.721V12.801ZM57.344 12.801V12.301H57.0006L56.8773 12.6215L57.344 12.801ZM55.729 17V17.5H56.0724L56.1957 17.1795L55.729 17ZM54 17L53.534 16.8187L53.2689 17.5H54V17ZM59.301 3.377V2.877H58.959L58.835 3.19568L59.301 3.377ZM60.84 3.377L61.3062 3.19625L61.1824 2.877H60.84V3.377ZM66.122 17V17.5H66.8521L66.5882 16.8192L66.122 17ZM60.688 7.177L61.1569 7.00334L61.1562 7.00144L60.688 7.177ZM60.498 6.626L60.0237 6.78411L60.0237 6.78411L60.498 6.626ZM60.232 5.809L59.7482 5.93521L59.7515 5.948L59.7555 5.9606L60.232 5.809ZM60.042 5.144L60.5163 4.98589L59.9734 3.35697L59.5569 5.02273L60.042 5.144ZM59.833 5.923L59.3522 5.78564L59.3499 5.79365L59.3479 5.80173L59.833 5.923ZM59.624 6.626L59.1525 6.45959L59.1481 6.47214L59.1443 6.48492L59.624 6.626ZM59.453 7.177L59.9212 7.35256L59.9244 7.34389L59.9273 7.33511L59.453 7.177ZM57.914 11.281L57.4458 11.1054L57.1925 11.781H57.914V11.281ZM62.208 11.281V11.781H62.9264L62.6769 11.1073L62.208 11.281ZM64.821 16.8187L63.187 12.6197L62.255 12.9823L63.889 17.1813L64.821 16.8187ZM62.721 12.301H57.344V13.301H62.721V12.301ZM56.8773 12.6215L55.2623 16.8205L56.1957 17.1795L57.8107 12.9805L56.8773 12.6215ZM55.729 16.5H54V17.5H55.729V16.5ZM54.466 17.1813L59.767 3.55832L58.835 3.19568L53.534 16.8187L54.466 17.1813ZM59.301 3.877H60.84V2.877H59.301V3.877ZM60.3738 3.55775L65.6558 17.1808L66.5882 16.8192L61.3062 3.19625L60.3738 3.55775ZM66.122 16.5H64.355V17.5H66.122V16.5ZM61.1562 7.00144C61.1218 6.90987 61.0612 6.73437 60.9723 6.46789L60.0237 6.78411C60.1122 7.04963 60.1782 7.24146 60.2198 7.35256L61.1562 7.00144ZM60.9723 6.46789C60.8844 6.20414 60.7965 5.93398 60.7085 5.6574L59.7555 5.9606C59.8449 6.24135 59.9342 6.51586 60.0237 6.78411L60.9723 6.46789ZM60.7158 5.68279C60.639 5.38828 60.5723 5.15386 60.5163 4.98589L59.5677 5.30211C59.613 5.43814 59.673 5.64705 59.7482 5.93521L60.7158 5.68279ZM59.5569 5.02273C59.495 5.27037 59.4268 5.52467 59.3522 5.78564L60.3138 6.06036C60.3912 5.78933 60.4623 5.52429 60.5271 5.26527L59.5569 5.02273ZM59.3479 5.80173C59.2879 6.04193 59.2226 6.261 59.1525 6.45959L60.0955 6.79241C60.1774 6.56033 60.2515 6.31074 60.3181 6.04427L59.3479 5.80173ZM59.1443 6.48492C59.0821 6.69661 59.0269 6.87426 58.9787 7.01889L59.9273 7.33511C59.9805 7.17574 60.0393 6.98606 60.1037 6.76708L59.1443 6.48492ZM58.9848 7.00144L57.4458 11.1054L58.3822 11.4566L59.9212 7.35256L58.9848 7.00144ZM57.914 11.781H62.208V10.781H57.914V11.781ZM62.6769 11.1073L61.1569 7.00334L60.2191 7.35066L61.7391 11.4547L62.6769 11.1073Z" fill="black" mask="url(#path-1-outside-1_5_2)"/>
<mask id="path-3-outside-2_5_2" maskUnits="userSpaceOnUse" x="70" y="2" width="11" height="16" fill="black">
<rect fill="white" x="70" y="2" width="11" height="16"/>
<path d="M79.861 6.607C79.861 7.53167 79.5697 8.26633 78.987 8.811C78.4043 9.343 77.6253 9.685 76.65 9.837V9.913C77.79 10.065 78.6577 10.4197 79.253 10.977C79.8483 11.5343 80.146 12.2627 80.146 13.162C80.146 13.96 79.9433 14.663 79.538 15.271C79.1327 15.8663 78.5247 16.335 77.714 16.677C76.9033 17.019 75.89 17.19 74.674 17.19C73.9393 17.19 73.2363 17.133 72.565 17.019C71.9063 16.9177 71.292 16.7277 70.722 16.449V14.891C71.1147 15.081 71.5327 15.2457 71.976 15.385C72.432 15.5117 72.888 15.613 73.344 15.689C73.8 15.7523 74.237 15.784 74.655 15.784C75.871 15.784 76.7893 15.556 77.41 15.1C78.0433 14.644 78.36 13.998 78.36 13.162C78.36 12.3007 77.9927 11.6737 77.258 11.281C76.5233 10.8883 75.4973 10.692 74.18 10.692H72.242V9.267H74.085C74.9843 9.267 75.7253 9.16567 76.308 8.963C76.9033 8.76033 77.3467 8.47533 77.638 8.108C77.942 7.728 78.094 7.28467 78.094 6.778C78.094 6.094 77.8407 5.56833 77.334 5.201C76.8273 4.83367 76.1687 4.65 75.358 4.65C74.5093 4.65 73.8 4.75767 73.23 4.973C72.6727 5.18833 72.128 5.467 71.596 5.809L70.779 4.65C71.1337 4.384 71.539 4.14967 71.995 3.947C72.4637 3.73167 72.983 3.56067 73.553 3.434C74.123 3.30733 74.731 3.244 75.377 3.244C76.3523 3.244 77.1693 3.38967 77.828 3.681C78.4993 3.97233 79.006 4.37133 79.348 4.878C79.69 5.372 79.861 5.94833 79.861 6.607Z"/>
</mask>
<path d="M79.861 6.607C79.861 7.53167 79.5697 8.26633 78.987 8.811C78.4043 9.343 77.6253 9.685 76.65 9.837V9.913C77.79 10.065 78.6577 10.4197 79.253 10.977C79.8483 11.5343 80.146 12.2627 80.146 13.162C80.146 13.96 79.9433 14.663 79.538 15.271C79.1327 15.8663 78.5247 16.335 77.714 16.677C76.9033 17.019 75.89 17.19 74.674 17.19C73.9393 17.19 73.2363 17.133 72.565 17.019C71.9063 16.9177 71.292 16.7277 70.722 16.449V14.891C71.1147 15.081 71.5327 15.2457 71.976 15.385C72.432 15.5117 72.888 15.613 73.344 15.689C73.8 15.7523 74.237 15.784 74.655 15.784C75.871 15.784 76.7893 15.556 77.41 15.1C78.0433 14.644 78.36 13.998 78.36 13.162C78.36 12.3007 77.9927 11.6737 77.258 11.281C76.5233 10.8883 75.4973 10.692 74.18 10.692H72.242V9.267H74.085C74.9843 9.267 75.7253 9.16567 76.308 8.963C76.9033 8.76033 77.3467 8.47533 77.638 8.108C77.942 7.728 78.094 7.28467 78.094 6.778C78.094 6.094 77.8407 5.56833 77.334 5.201C76.8273 4.83367 76.1687 4.65 75.358 4.65C74.5093 4.65 73.8 4.75767 73.23 4.973C72.6727 5.18833 72.128 5.467 71.596 5.809L70.779 4.65C71.1337 4.384 71.539 4.14967 71.995 3.947C72.4637 3.73167 72.983 3.56067 73.553 3.434C74.123 3.30733 74.731 3.244 75.377 3.244C76.3523 3.244 77.1693 3.38967 77.828 3.681C78.4993 3.97233 79.006 4.37133 79.348 4.878C79.69 5.372 79.861 5.94833 79.861 6.607Z" fill="white"/>
<path d="M78.987 8.811L79.3242 9.18027L79.3284 9.17626L78.987 8.811ZM76.65 9.837L76.573 9.34296L76.15 9.40889V9.837H76.65ZM76.65 9.913H76.15V10.3508L76.5839 10.4086L76.65 9.913ZM79.253 10.977L78.9113 11.342L78.9113 11.342L79.253 10.977ZM79.538 15.271L79.9513 15.5524L79.954 15.5483L79.538 15.271ZM77.714 16.677L77.9084 17.1377L77.714 16.677ZM72.565 17.019L72.6487 16.526L72.641 16.5248L72.565 17.019ZM70.722 16.449H70.222V16.7611L70.5024 16.8982L70.722 16.449ZM70.722 14.891L70.9398 14.4409L70.222 14.0936V14.891H70.722ZM71.976 15.385L71.8261 15.862L71.8341 15.8645L71.8422 15.8668L71.976 15.385ZM73.344 15.689L73.2618 16.1824L73.2752 16.1842L73.344 15.689ZM77.41 15.1L77.1178 14.6942L77.114 14.6971L77.41 15.1ZM77.258 11.281L77.4937 10.84L77.4937 10.84L77.258 11.281ZM72.242 10.692H71.742V11.192H72.242V10.692ZM72.242 9.267V8.767H71.742V9.267H72.242ZM76.308 8.963L76.1469 8.48966L76.1437 8.49075L76.308 8.963ZM77.638 8.108L77.2476 7.79565L77.2463 7.7973L77.638 8.108ZM77.334 5.201L77.6275 4.79619L77.6275 4.79619L77.334 5.201ZM73.23 4.973L73.0533 4.50525L73.0498 4.5066L73.23 4.973ZM71.596 5.809L71.1873 6.09708L71.4634 6.48867L71.8664 6.22959L71.596 5.809ZM70.779 4.65L70.479 4.25L70.0906 4.54128L70.3703 4.93808L70.779 4.65ZM71.995 3.947L72.1981 4.40394L72.2038 4.40134L71.995 3.947ZM77.828 3.681L77.6257 4.13828L77.629 4.13967L77.828 3.681ZM79.348 4.878L78.9335 5.15776L78.9369 5.16261L79.348 4.878ZM79.361 6.607C79.361 7.41733 79.1107 8.01092 78.6456 8.44574L79.3284 9.17626C80.0286 8.52175 80.361 7.646 80.361 6.607H79.361ZM78.6499 8.44176C78.1561 8.89261 77.4756 9.20229 76.573 9.34296L76.727 10.331C77.775 10.1677 78.6526 9.79339 79.3241 9.18024L78.6499 8.44176ZM76.15 9.837V9.913H77.15V9.837H76.15ZM76.5839 10.4086C77.6617 10.5523 78.4174 10.8797 78.9113 11.342L79.5947 10.612C78.8979 9.95965 77.9183 9.57769 76.7161 9.41739L76.5839 10.4086ZM78.9113 11.342C79.3947 11.7945 79.646 12.3852 79.646 13.162H80.646C80.646 12.1401 80.302 11.2741 79.5947 10.612L78.9113 11.342ZM79.646 13.162C79.646 13.8708 79.4675 14.4753 79.122 14.9936L79.954 15.5483C80.4191 14.8507 80.646 14.0492 80.646 13.162H79.646ZM79.1247 14.9896C78.7845 15.4893 78.2614 15.9034 77.5197 16.2163L77.9084 17.1377C78.788 16.7666 79.4808 16.2434 79.9513 15.5524L79.1247 14.9896ZM77.5197 16.2163C76.7892 16.5245 75.8471 16.69 74.674 16.69V17.69C75.9329 17.69 77.0175 17.5135 77.9084 17.1377L77.5197 16.2163ZM74.674 16.69C73.9652 16.69 73.2903 16.635 72.6487 16.5261L72.4813 17.5119C73.1824 17.631 73.9135 17.69 74.674 17.69V16.69ZM72.641 16.5248C72.0297 16.4308 71.4641 16.2552 70.9416 15.9998L70.5024 16.8982C71.1199 17.2001 71.783 17.4046 72.489 17.5132L72.641 16.5248ZM71.222 16.449V14.891H70.222V16.449H71.222ZM70.5042 15.3411C70.9202 15.5424 71.361 15.7158 71.8261 15.862L72.1259 14.908C71.7043 14.7755 71.3091 14.6196 70.9398 14.4409L70.5042 15.3411ZM71.8422 15.8668C72.3148 15.998 72.788 16.1032 73.2618 16.1822L73.4262 15.1958C72.988 15.1228 72.5492 15.0253 72.1098 14.9032L71.8422 15.8668ZM73.2752 16.1842C73.7517 16.2504 74.2118 16.284 74.655 16.284V15.284C74.2622 15.284 73.8483 15.2542 73.4128 15.1938L73.2752 16.1842ZM74.655 16.284C75.9202 16.284 76.9627 16.0491 77.706 15.5029L77.114 14.6971C76.616 15.0629 75.8218 15.284 74.655 15.284V16.284ZM77.7022 15.5058C78.4765 14.9482 78.86 14.1454 78.86 13.162H77.86C77.86 13.8506 77.6102 14.3398 77.1178 14.6942L77.7022 15.5058ZM78.86 13.162C78.86 12.6591 78.7522 12.1963 78.5159 11.793C78.2791 11.3888 77.9302 11.0734 77.4937 10.84L77.0223 11.722C77.3204 11.8813 77.5226 12.0757 77.6531 12.2985C77.7841 12.5222 77.86 12.8036 77.86 13.162H78.86ZM77.4937 10.84C76.6562 10.3924 75.5365 10.192 74.18 10.192V11.192C75.4582 11.192 76.3905 11.3842 77.0223 11.722L77.4937 10.84ZM74.18 10.192H72.242V11.192H74.18V10.192ZM72.742 10.692V9.267H71.742V10.692H72.742ZM72.242 9.767H74.085V8.767H72.242V9.767ZM74.085 9.767C75.017 9.767 75.8186 9.66262 76.4723 9.43525L76.1437 8.49075C75.6321 8.66871 74.9517 8.767 74.085 8.767V9.767ZM76.4691 9.43632C77.1251 9.21301 77.6616 8.88289 78.0297 8.4187L77.2463 7.7973C77.0317 8.06778 76.6815 8.30766 76.1469 8.48967L76.4691 9.43632ZM78.0284 8.42035C78.4065 7.94783 78.594 7.39315 78.594 6.778H77.594C77.594 7.17618 77.4776 7.50817 77.2476 7.79565L78.0284 8.42035ZM78.594 6.778C78.594 5.9511 78.2773 5.26731 77.6275 4.79619L77.0405 5.6058C77.404 5.86936 77.594 6.2369 77.594 6.778H78.594ZM77.6275 4.79619C77.0133 4.35093 76.243 4.15 75.358 4.15V5.15C76.0944 5.15 76.6413 5.3164 77.0405 5.6058L77.6275 4.79619ZM75.358 4.15C74.4709 4.15 73.6972 4.26201 73.0533 4.50526L73.4067 5.44074C73.9028 5.25332 74.5477 5.15 75.358 5.15V4.15ZM73.0498 4.5066C72.4592 4.7348 71.8844 5.02919 71.3256 5.38841L71.8664 6.22959C72.3716 5.90481 72.8862 5.64186 73.4102 5.4394L73.0498 4.5066ZM72.0047 5.52092L71.1877 4.36192L70.3703 4.93808L71.1873 6.09708L72.0047 5.52092ZM71.079 5.05C71.4001 4.80916 71.7722 4.59318 72.1981 4.4039L71.7919 3.49009C71.3058 3.70615 70.8672 3.95884 70.479 4.25L71.079 5.05ZM72.2038 4.40134C72.6364 4.20256 73.1215 4.04207 73.6615 3.92209L73.4445 2.94591C72.8445 3.07926 72.2909 3.26077 71.7862 3.49266L72.2038 4.40134ZM73.6615 3.92209C74.1923 3.80413 74.7637 3.744 75.377 3.744V2.744C74.6983 2.744 74.0537 2.81054 73.4445 2.94591L73.6615 3.92209ZM75.377 3.744C76.306 3.744 77.0491 3.88321 77.6257 4.13827L78.0303 3.22373C77.2896 2.89612 76.3987 2.744 75.377 2.744V3.744ZM77.629 4.13967C78.2303 4.40065 78.6546 4.7444 78.9336 5.15774L79.7624 4.59826C79.3574 3.99827 78.7683 3.54402 78.027 3.22233L77.629 4.13967ZM78.9369 5.16261C79.2154 5.56494 79.361 6.03979 79.361 6.607H80.361C80.361 5.85688 80.1646 5.17906 79.7591 4.59339L78.9369 5.16261Z" fill="black" mask="url(#path-3-outside-2_5_2)"/>
<mask id="path-5-outside-3_5_2" maskUnits="userSpaceOnUse" x="38" y="2" width="14" height="16" fill="black">
<rect fill="white" x="38" y="2" width="14" height="16"/>
<path d="M46.524 13.143C46.1187 14.0423 45.707 14.796 45.289 15.404C44.8837 15.9993 44.4023 16.449 43.845 16.753C43.2877 17.0443 42.5783 17.19 41.717 17.19C41.3623 17.19 41.0267 17.1647 40.71 17.114C40.406 17.0633 40.1273 16.9937 39.874 16.905V15.214C40.1273 15.328 40.3997 15.423 40.691 15.499C40.9823 15.5623 41.2863 15.594 41.603 15.594C42.0717 15.594 42.4707 15.5307 42.8 15.404C43.142 15.2647 43.4397 15.043 43.693 14.739C43.959 14.435 44.206 14.0297 44.434 13.523L39.209 3.434H41.09L44.871 10.901C44.9217 10.9897 44.9723 11.0973 45.023 11.224C45.0737 11.338 45.1243 11.4583 45.175 11.585C45.2383 11.7117 45.289 11.832 45.327 11.946H45.403C45.441 11.8573 45.479 11.756 45.517 11.642C45.5677 11.5153 45.612 11.395 45.65 11.281C45.7007 11.1543 45.745 11.0467 45.783 10.958L49.051 3.434H50.856L46.524 13.143Z"/>
</mask>
<path d="M46.524 13.143C46.1187 14.0423 45.707 14.796 45.289 15.404C44.8837 15.9993 44.4023 16.449 43.845 16.753C43.2877 17.0443 42.5783 17.19 41.717 17.19C41.3623 17.19 41.0267 17.1647 40.71 17.114C40.406 17.0633 40.1273 16.9937 39.874 16.905V15.214C40.1273 15.328 40.3997 15.423 40.691 15.499C40.9823 15.5623 41.2863 15.594 41.603 15.594C42.0717 15.594 42.4707 15.5307 42.8 15.404C43.142 15.2647 43.4397 15.043 43.693 14.739C43.959 14.435 44.206 14.0297 44.434 13.523L39.209 3.434H41.09L44.871 10.901C44.9217 10.9897 44.9723 11.0973 45.023 11.224C45.0737 11.338 45.1243 11.4583 45.175 11.585C45.2383 11.7117 45.289 11.832 45.327 11.946H45.403C45.441 11.8573 45.479 11.756 45.517 11.642C45.5677 11.5153 45.612 11.395 45.65 11.281C45.7007 11.1543 45.745 11.0467 45.783 10.958L49.051 3.434H50.856L46.524 13.143Z" fill="white"/>
<path d="M46.524 13.143L46.9798 13.3485L46.9806 13.3467L46.524 13.143ZM45.289 15.404L44.877 15.1207L44.8757 15.1226L45.289 15.404ZM43.845 16.753L44.0767 17.1962L44.0844 17.1919L43.845 16.753ZM40.71 17.114L40.6278 17.6072L40.631 17.6077L40.71 17.114ZM39.874 16.905H39.374V17.2597L39.7088 17.3769L39.874 16.905ZM39.874 15.214L40.0792 14.758L39.374 14.4407V15.214H39.874ZM40.691 15.499L40.5648 15.9828L40.5747 15.9854L40.5848 15.9876L40.691 15.499ZM42.8 15.404L42.9795 15.8708L42.9886 15.867L42.8 15.404ZM43.693 14.739L43.3166 14.4097L43.3089 14.4189L43.693 14.739ZM44.434 13.523L44.89 13.7282L44.9892 13.5077L44.878 13.2931L44.434 13.523ZM39.209 3.434V2.934H38.387L38.765 3.66394L39.209 3.434ZM41.09 3.434L41.5361 3.20813L41.3973 2.934H41.09V3.434ZM44.871 10.901L44.4249 11.1269L44.4306 11.1381L44.4369 11.1491L44.871 10.901ZM45.023 11.224L44.5588 11.4097L44.5623 11.4185L44.5661 11.4271L45.023 11.224ZM45.175 11.585L44.7108 11.7707L44.7185 11.79L44.7278 11.8086L45.175 11.585ZM45.327 11.946L44.8527 12.1041L44.9666 12.446H45.327V11.946ZM45.403 11.946V12.446H45.7327L45.8626 12.143L45.403 11.946ZM45.517 11.642L45.0528 11.4563L45.0473 11.4699L45.0427 11.4839L45.517 11.642ZM45.65 11.281L45.1858 11.0953L45.1803 11.1089L45.1757 11.1229L45.65 11.281ZM45.783 10.958L45.3244 10.7588L45.3234 10.761L45.783 10.958ZM49.051 3.434V2.934H48.723L48.5924 3.23481L49.051 3.434ZM50.856 3.434L51.3126 3.63773L51.6266 2.934H50.856V3.434ZM46.0682 12.9376C45.6713 13.8181 45.2735 14.5439 44.877 15.1207L45.701 15.6873C46.1405 15.0481 46.5661 14.2665 46.9798 13.3484L46.0682 12.9376ZM44.8757 15.1226C44.509 15.6613 44.0844 16.0529 43.6056 16.3141L44.0844 17.1919C44.7203 16.8451 45.2584 16.3374 45.7023 15.6854L44.8757 15.1226ZM43.6134 16.3099C43.149 16.5526 42.526 16.69 41.717 16.69V17.69C42.6307 17.69 43.4263 17.536 44.0766 17.1961L43.6134 16.3099ZM41.717 16.69C41.386 16.69 41.077 16.6664 40.789 16.6203L40.631 17.6077C40.9764 17.663 41.3386 17.69 41.717 17.69V16.69ZM40.7922 16.6208C40.5124 16.5742 40.2619 16.511 40.0392 16.4331L39.7088 17.3769C39.9928 17.4763 40.2996 17.5525 40.6278 17.6072L40.7922 16.6208ZM40.374 16.905V15.214H39.374V16.905H40.374ZM39.6688 15.67C39.9497 15.7963 40.2486 15.9003 40.5648 15.9828L40.8172 15.0152C40.5507 14.9457 40.305 14.8597 40.0792 14.758L39.6688 15.67ZM40.5848 15.9876C40.9131 16.059 41.2528 16.094 41.603 16.094V15.094C41.3198 15.094 41.0516 15.0657 40.7972 15.0104L40.5848 15.9876ZM41.603 16.094C42.114 16.094 42.5775 16.0253 42.9795 15.8707L42.6205 14.9373C42.3638 15.036 42.0293 15.094 41.603 15.094V16.094ZM42.9886 15.867C43.4119 15.6946 43.7752 15.4214 44.0771 15.0591L43.3089 14.4189C43.1042 14.6646 42.8721 14.8347 42.6114 14.941L42.9886 15.867ZM44.0693 15.0683C44.3775 14.7161 44.6487 14.2643 44.89 13.7282L43.978 13.3178C43.7633 13.795 43.5405 14.1539 43.3167 14.4097L44.0693 15.0683ZM44.878 13.2931L39.653 3.20406L38.765 3.66394L43.99 13.7529L44.878 13.2931ZM39.209 3.934H41.09V2.934H39.209V3.934ZM40.6439 3.65987L44.4249 11.1269L45.3171 10.6751L41.5361 3.20813L40.6439 3.65987ZM44.4369 11.1491C44.473 11.2123 44.514 11.2979 44.5588 11.4097L45.4872 11.0383C45.4306 10.8968 45.3703 10.767 45.3051 10.6529L44.4369 11.1491ZM44.5661 11.4271C44.614 11.5348 44.6622 11.6493 44.7108 11.7707L45.6392 11.3993C45.5865 11.2673 45.5333 11.1412 45.4799 11.0209L44.5661 11.4271ZM44.7278 11.8086C44.7824 11.9177 44.8233 12.0161 44.8527 12.1041L45.8013 11.7879C45.7547 11.6479 45.6943 11.5056 45.6222 11.3614L44.7278 11.8086ZM45.327 12.446H45.403V11.446H45.327V12.446ZM45.8626 12.143C45.9072 12.0389 45.95 11.9242 45.9913 11.8001L45.0427 11.4839C45.008 11.5878 44.9748 11.6758 44.9434 11.749L45.8626 12.143ZM45.9812 11.8277C46.0351 11.6931 46.0829 11.5635 46.1243 11.4391L45.1757 11.1229C45.1411 11.2265 45.1003 11.3375 45.0528 11.4563L45.9812 11.8277ZM46.1142 11.4667C46.164 11.3424 46.2067 11.2387 46.2426 11.155L45.3234 10.761C45.2833 10.8546 45.2374 10.9663 45.1858 11.0953L46.1142 11.4667ZM46.2416 11.1572L49.5096 3.63319L48.5924 3.23481L45.3244 10.7588L46.2416 11.1572ZM49.051 3.934H50.856V2.934H49.051V3.934ZM50.3994 3.23027L46.0674 12.9393L46.9806 13.3467L51.3126 3.63773L50.3994 3.23027Z" fill="black" mask="url(#path-5-outside-3_5_2)"/>
<mask id="path-7-outside-4_5_2" maskUnits="userSpaceOnUse" x="7" y="22" width="11" height="16" fill="black">
<rect fill="white" x="7" y="22" width="11" height="16"/>
<path d="M12.042 23.434C13.79 23.434 15.063 23.814 15.861 24.574C16.6717 25.3213 17.077 26.3537 17.077 27.671C17.077 28.2663 16.9883 28.8363 16.811 29.381C16.6337 29.913 16.336 30.3943 15.918 30.825C15.5127 31.243 14.9743 31.5723 14.303 31.813C13.6317 32.0537 12.802 32.174 11.814 32.174H10.579V37H7.71V23.434H12.042ZM11.89 25.79H10.579V29.818H11.529C12.0737 29.818 12.5423 29.7483 12.935 29.609C13.3277 29.4697 13.6317 29.248 13.847 28.944C14.0623 28.64 14.17 28.2473 14.17 27.766C14.17 27.0947 13.9863 26.6007 13.619 26.284C13.2517 25.9547 12.6753 25.79 11.89 25.79Z"/>
</mask>
<path d="M12.042 23.434C13.79 23.434 15.063 23.814 15.861 24.574C16.6717 25.3213 17.077 26.3537 17.077 27.671C17.077 28.2663 16.9883 28.8363 16.811 29.381C16.6337 29.913 16.336 30.3943 15.918 30.825C15.5127 31.243 14.9743 31.5723 14.303 31.813C13.6317 32.0537 12.802 32.174 11.814 32.174H10.579V37H7.71V23.434H12.042ZM11.89 25.79H10.579V29.818H11.529C12.0737 29.818 12.5423 29.7483 12.935 29.609C13.3277 29.4697 13.6317 29.248 13.847 28.944C14.0623 28.64 14.17 28.2473 14.17 27.766C14.17 27.0947 13.9863 26.6007 13.619 26.284C13.2517 25.9547 12.6753 25.79 11.89 25.79Z" fill="white"/>
<path d="M15.861 24.574L15.5161 24.9361L15.5221 24.9416L15.861 24.574ZM16.811 29.381L17.2854 29.5391L17.2864 29.5358L16.811 29.381ZM15.918 30.825L15.5592 30.4768L15.5591 30.4769L15.918 30.825ZM14.303 31.813L14.4717 32.2837L14.4717 32.2837L14.303 31.813ZM10.579 32.174V31.674H10.079V32.174H10.579ZM10.579 37V37.5H11.079V37H10.579ZM7.71 37H7.21V37.5H7.71V37ZM7.71 23.434V22.934H7.21V23.434H7.71ZM10.579 25.79V25.29H10.079V25.79H10.579ZM10.579 29.818H10.079V30.318H10.579V29.818ZM12.935 29.609L12.7678 29.1378L12.7678 29.1378L12.935 29.609ZM13.847 28.944L13.439 28.655L13.439 28.655L13.847 28.944ZM13.619 26.284L13.2852 26.6564L13.2925 26.6627L13.619 26.284ZM12.042 23.934C13.7338 23.934 14.8528 24.3043 15.5162 24.9361L16.2058 24.2119C15.2732 23.3237 13.8462 22.934 12.042 22.934V23.934ZM15.5221 24.9416C16.2102 25.576 16.577 26.4638 16.577 27.671H17.577C17.577 26.2435 17.1331 25.0667 16.1999 24.2064L15.5221 24.9416ZM16.577 27.671C16.577 28.2159 16.496 28.7335 16.3356 29.2262L17.2864 29.5358C17.4807 28.9392 17.577 28.3168 17.577 27.671H16.577ZM16.3367 29.2229C16.1847 29.6787 15.9287 30.0961 15.5592 30.4768L16.2768 31.1732C16.7433 30.6925 17.0826 30.1473 17.2853 29.5391L16.3367 29.2229ZM15.5591 30.4769C15.2175 30.8291 14.7495 31.1218 14.1343 31.3423L14.4717 32.2837C15.1991 32.0229 15.8078 31.6569 16.277 31.1731L15.5591 30.4769ZM14.1343 31.3423C13.5335 31.5577 12.765 31.674 11.814 31.674V32.674C12.839 32.674 13.7298 32.5496 14.4717 32.2837L14.1343 31.3423ZM11.814 31.674H10.579V32.674H11.814V31.674ZM10.079 32.174V37H11.079V32.174H10.079ZM10.579 36.5H7.71V37.5H10.579V36.5ZM8.21 37V23.434H7.21V37H8.21ZM7.71 23.934H12.042V22.934H7.71V23.934ZM11.89 25.29H10.579V26.29H11.89V25.29ZM10.079 25.79V29.818H11.079V25.79H10.079ZM10.579 30.318H11.529V29.318H10.579V30.318ZM11.529 30.318C12.1141 30.318 12.6422 30.2434 13.1022 30.0802L12.7678 29.1378C12.4425 29.2532 12.0332 29.318 11.529 29.318V30.318ZM13.1022 30.0802C13.58 29.9107 13.9732 29.6309 14.255 29.233L13.439 28.655C13.2902 28.8651 13.0753 29.0287 12.7678 29.1378L13.1022 30.0802ZM14.255 29.233C14.5455 28.8229 14.67 28.3207 14.67 27.766H13.67C13.67 28.174 13.5791 28.4571 13.439 28.655L14.255 29.233ZM14.67 27.766C14.67 27.0075 14.4606 26.3494 13.9455 25.9053L13.2925 26.6627C13.5121 26.852 13.67 27.1818 13.67 27.766H14.67ZM13.9528 25.9117C13.4527 25.4634 12.7293 25.29 11.89 25.29V26.29C12.6214 26.29 13.0506 26.4459 13.2852 26.6563L13.9528 25.9117Z" fill="black" mask="url(#path-7-outside-4_5_2)"/>
<mask id="path-9-outside-5_5_2" maskUnits="userSpaceOnUse" x="21" y="22" width="15" height="16" fill="black">
<rect fill="white" x="21" y="22" width="15" height="16"/>
<path d="M35.022 30.198C35.022 31.2493 34.889 32.2057 34.623 33.067C34.3697 33.9157 33.977 34.6503 33.445 35.271C32.9257 35.8917 32.2543 36.3667 31.431 36.696C30.6203 37.0253 29.664 37.19 28.562 37.19C27.46 37.19 26.4973 37.0253 25.674 36.696C24.8633 36.354 24.192 35.879 23.66 35.271C23.1407 34.6503 22.748 33.9093 22.482 33.048C22.2287 32.1867 22.102 31.2303 22.102 30.179C22.102 28.773 22.33 27.5507 22.786 26.512C23.2547 25.4733 23.964 24.669 24.914 24.099C25.8767 23.5163 27.099 23.225 28.581 23.225C30.0503 23.225 31.26 23.5163 32.21 24.099C33.16 24.669 33.863 25.4797 34.319 26.531C34.7877 27.5697 35.022 28.792 35.022 30.198ZM25.123 30.198C25.123 31.148 25.2433 31.965 25.484 32.649C25.7247 33.333 26.0983 33.8587 26.605 34.226C27.1117 34.5933 27.764 34.777 28.562 34.777C29.3853 34.777 30.044 34.5933 30.538 34.226C31.0447 33.8587 31.412 33.333 31.64 32.649C31.8807 31.965 32.001 31.148 32.001 30.198C32.001 28.7667 31.735 27.6457 31.203 26.835C30.671 26.0243 29.797 25.619 28.581 25.619C27.7703 25.619 27.1117 25.8027 26.605 26.17C26.0983 26.5373 25.7247 27.063 25.484 27.747C25.2433 28.431 25.123 29.248 25.123 30.198Z"/>
</mask>
<path d="M35.022 30.198C35.022 31.2493 34.889 32.2057 34.623 33.067C34.3697 33.9157 33.977 34.6503 33.445 35.271C32.9257 35.8917 32.2543 36.3667 31.431 36.696C30.6203 37.0253 29.664 37.19 28.562 37.19C27.46 37.19 26.4973 37.0253 25.674 36.696C24.8633 36.354 24.192 35.879 23.66 35.271C23.1407 34.6503 22.748 33.9093 22.482 33.048C22.2287 32.1867 22.102 31.2303 22.102 30.179C22.102 28.773 22.33 27.5507 22.786 26.512C23.2547 25.4733 23.964 24.669 24.914 24.099C25.8767 23.5163 27.099 23.225 28.581 23.225C30.0503 23.225 31.26 23.5163 32.21 24.099C33.16 24.669 33.863 25.4797 34.319 26.531C34.7877 27.5697 35.022 28.792 35.022 30.198ZM25.123 30.198C25.123 31.148 25.2433 31.965 25.484 32.649C25.7247 33.333 26.0983 33.8587 26.605 34.226C27.1117 34.5933 27.764 34.777 28.562 34.777C29.3853 34.777 30.044 34.5933 30.538 34.226C31.0447 33.8587 31.412 33.333 31.64 32.649C31.8807 31.965 32.001 31.148 32.001 30.198C32.001 28.7667 31.735 27.6457 31.203 26.835C30.671 26.0243 29.797 25.619 28.581 25.619C27.7703 25.619 27.1117 25.8027 26.605 26.17C26.0983 26.5373 25.7247 27.063 25.484 27.747C25.2433 28.431 25.123 29.248 25.123 30.198Z" fill="white"/>
<path d="M34.623 33.067L34.1452 32.9195L34.1439 32.924L34.623 33.067ZM33.445 35.271L33.0653 34.9456L33.0615 34.9501L33.445 35.271ZM31.431 36.696L31.2453 36.2318L31.2428 36.2328L31.431 36.696ZM25.674 36.696L25.4796 37.1568L25.4883 37.1602L25.674 36.696ZM23.66 35.271L23.2764 35.5919L23.2837 35.6003L23.66 35.271ZM22.482 33.048L22.0023 33.1891L22.0043 33.1955L22.482 33.048ZM22.786 26.512L22.3302 26.3063L22.3282 26.311L22.786 26.512ZM24.914 24.099L25.1713 24.5277L25.1729 24.5267L24.914 24.099ZM32.21 24.099L31.9486 24.5252L31.9528 24.5277L32.21 24.099ZM34.319 26.531L33.8602 26.73L33.8632 26.7366L34.319 26.531ZM26.605 34.226L26.8985 33.8212L26.8985 33.8212L26.605 34.226ZM30.538 34.226L30.2445 33.8212L30.2396 33.8248L30.538 34.226ZM31.64 32.649L31.1683 32.483L31.1657 32.4909L31.64 32.649ZM31.203 26.835L30.785 27.1093L30.785 27.1093L31.203 26.835ZM26.605 26.17L26.3115 25.7652L26.3115 25.7652L26.605 26.17ZM25.484 27.747L25.0123 27.581L25.484 27.747ZM34.522 30.198C34.522 31.2074 34.3943 32.1131 34.1453 32.9195L35.1007 33.2145C35.3837 32.2982 35.522 31.2912 35.522 30.198H34.522ZM34.1439 32.924C33.9089 33.7112 33.5481 34.3824 33.0654 34.9456L33.8246 35.5964C34.4059 34.9183 34.8304 34.1201 35.1021 33.21L34.1439 32.924ZM33.0615 34.9501C32.6002 35.5015 31.9994 35.9301 31.2453 36.2318L31.6167 37.1602C32.5093 36.8032 33.2511 36.2819 33.8285 35.5919L33.0615 34.9501ZM31.2428 36.2328C30.5052 36.5324 29.6156 36.69 28.562 36.69V37.69C29.7124 37.69 30.7354 37.5183 31.6192 37.1592L31.2428 36.2328ZM28.562 36.69C27.5087 36.69 26.6115 36.5325 25.8597 36.2318L25.4883 37.1602C26.3831 37.5182 27.4113 37.69 28.562 37.69V36.69ZM25.8684 36.2353C25.1212 35.9201 24.5141 35.4878 24.0363 34.9417L23.2837 35.6003C23.8699 36.2702 24.6055 36.7879 25.4796 37.1567L25.8684 36.2353ZM24.0435 34.9501C23.5714 34.3859 23.2084 33.7056 22.9597 32.9005L22.0043 33.1955C22.2876 34.1131 22.71 34.9148 23.2765 35.5919L24.0435 34.9501ZM22.9617 32.9069C22.7239 32.0984 22.602 31.1905 22.602 30.179H21.602C21.602 31.2701 21.7334 32.2749 22.0023 33.1891L22.9617 32.9069ZM22.602 30.179C22.602 28.8261 22.8215 27.6751 23.2438 26.713L22.3282 26.311C21.8385 27.4263 21.602 28.7199 21.602 30.179H22.602ZM23.2418 26.7176C23.6698 25.769 24.3112 25.0438 25.1712 24.5277L24.6568 23.6703C23.6168 24.2942 22.8395 25.1777 22.3302 26.3064L23.2418 26.7176ZM25.1729 24.5267C26.0364 24.0041 27.1621 23.725 28.581 23.725V22.725C27.0359 22.725 25.7169 23.0286 24.6551 23.6712L25.1729 24.5267ZM28.581 23.725C29.9867 23.725 31.0986 24.0039 31.9486 24.5252L32.4714 23.6728C31.4215 23.0288 30.1139 22.725 28.581 22.725V23.725ZM31.9528 24.5277C32.81 25.0421 33.4443 25.7709 33.8603 26.73L34.7777 26.332C34.2817 25.1885 33.51 24.2959 32.4672 23.6703L31.9528 24.5277ZM33.8632 26.7366C34.2968 27.6974 34.522 28.8467 34.522 30.198H35.522C35.522 28.7373 35.2786 27.4419 34.7748 26.3254L33.8632 26.7366ZM24.623 30.198C24.623 31.188 24.7481 32.064 25.0123 32.815L25.9557 32.483C25.7386 31.866 25.623 31.108 25.623 30.198H24.623ZM25.0123 32.815C25.2812 33.5792 25.7101 34.1948 26.3115 34.6308L26.8985 33.8212C26.4866 33.5226 26.1681 33.0868 25.9557 32.483L25.0123 32.815ZM26.3115 34.6308C26.9244 35.0752 27.6877 35.277 28.562 35.277V34.277C27.8403 34.277 27.2989 34.1115 26.8985 33.8212L26.3115 34.6308ZM28.562 35.277C29.4569 35.277 30.2311 35.0773 30.8364 34.6272L30.2396 33.8248C29.8569 34.1094 29.3138 34.277 28.562 34.277V35.277ZM30.8315 34.6308C31.4351 34.1932 31.8585 33.5746 32.1143 32.8071L31.1657 32.4909C30.9655 33.0914 30.6542 33.5242 30.2445 33.8212L30.8315 34.6308ZM32.1117 32.815C32.3759 32.064 32.501 31.188 32.501 30.198H31.501C31.501 31.108 31.3855 31.866 31.1683 32.483L32.1117 32.815ZM32.501 30.198C32.501 28.7129 32.2263 27.483 31.621 26.5607L30.785 27.1093C31.2437 27.8083 31.501 28.8204 31.501 30.198H32.501ZM31.621 26.5607C30.9728 25.5729 29.9169 25.119 28.581 25.119V26.119C29.6771 26.119 30.3692 26.4758 30.785 27.1093L31.621 26.5607ZM28.581 25.119C27.696 25.119 26.9257 25.3199 26.3115 25.7652L26.8985 26.5748C27.2977 26.2854 27.8446 26.119 28.581 26.119V25.119ZM26.3115 25.7652C25.7101 26.2012 25.2812 26.8168 25.0123 27.581L25.9557 27.913C26.1681 27.3092 26.4866 26.8734 26.8985 26.5748L26.3115 25.7652ZM25.0123 27.581C24.7481 28.332 24.623 29.208 24.623 30.198H25.623C25.623 29.288 25.7386 28.53 25.9557 27.913L25.0123 27.581Z" fill="black" mask="url(#path-9-outside-5_5_2)"/>
<mask id="path-11-outside-6_5_2" maskUnits="userSpaceOnUse" x="38" y="22" width="13" height="16" fill="black">
<rect fill="white" x="38" y="22" width="13" height="16"/>
<path d="M45.467 25.638C44.9223 25.638 44.4347 25.7457 44.004 25.961C43.586 26.1763 43.2313 26.4867 42.94 26.892C42.6487 27.2847 42.427 27.766 42.275 28.336C42.1357 28.906 42.066 29.5457 42.066 30.255C42.066 31.2177 42.18 32.041 42.408 32.725C42.6487 33.3963 43.0223 33.9093 43.529 34.264C44.0357 34.6187 44.6817 34.796 45.467 34.796C46.0243 34.796 46.5753 34.7327 47.12 34.606C47.6773 34.4793 48.279 34.302 48.925 34.074V36.487C48.3297 36.7277 47.7407 36.905 47.158 37.019C46.5753 37.133 45.923 37.19 45.201 37.19C43.8077 37.19 42.655 36.905 41.743 36.335C40.8437 35.7523 40.1787 34.9417 39.748 33.903C39.3173 32.8517 39.102 31.6293 39.102 30.236C39.102 29.21 39.2413 28.2727 39.52 27.424C39.7987 26.5627 40.204 25.8217 40.736 25.201C41.2807 24.5803 41.9457 24.099 42.731 23.757C43.529 23.415 44.441 23.244 45.467 23.244C46.1383 23.244 46.8097 23.3327 47.481 23.51C48.165 23.6747 48.8173 23.9027 49.438 24.194L48.507 26.531C48.0003 26.2903 47.4873 26.0813 46.968 25.904C46.4613 25.7267 45.961 25.638 45.467 25.638Z"/>
</mask>
<path d="M45.467 25.638C44.9223 25.638 44.4347 25.7457 44.004 25.961C43.586 26.1763 43.2313 26.4867 42.94 26.892C42.6487 27.2847 42.427 27.766 42.275 28.336C42.1357 28.906 42.066 29.5457 42.066 30.255C42.066 31.2177 42.18 32.041 42.408 32.725C42.6487 33.3963 43.0223 33.9093 43.529 34.264C44.0357 34.6187 44.6817 34.796 45.467 34.796C46.0243 34.796 46.5753 34.7327 47.12 34.606C47.6773 34.4793 48.279 34.302 48.925 34.074V36.487C48.3297 36.7277 47.7407 36.905 47.158 37.019C46.5753 37.133 45.923 37.19 45.201 37.19C43.8077 37.19 42.655 36.905 41.743 36.335C40.8437 35.7523 40.1787 34.9417 39.748 33.903C39.3173 32.8517 39.102 31.6293 39.102 30.236C39.102 29.21 39.2413 28.2727 39.52 27.424C39.7987 26.5627 40.204 25.8217 40.736 25.201C41.2807 24.5803 41.9457 24.099 42.731 23.757C43.529 23.415 44.441 23.244 45.467 23.244C46.1383 23.244 46.8097 23.3327 47.481 23.51C48.165 23.6747 48.8173 23.9027 49.438 24.194L48.507 26.531C48.0003 26.2903 47.4873 26.0813 46.968 25.904C46.4613 25.7267 45.961 25.638 45.467 25.638Z" fill="white"/>
<path d="M44.004 25.961L43.7804 25.5138L43.775 25.5165L44.004 25.961ZM42.94 26.892L43.3416 27.19L43.346 27.1838L42.94 26.892ZM42.275 28.336L41.7918 28.2071L41.7893 28.2173L42.275 28.336ZM42.408 32.725L41.9335 32.8832L41.9373 32.8937L42.408 32.725ZM43.529 34.264L43.2423 34.6736L43.2423 34.6736L43.529 34.264ZM47.12 34.606L47.0092 34.1184L47.0067 34.119L47.12 34.606ZM48.925 34.074H49.425V33.3673L48.7586 33.6025L48.925 34.074ZM48.925 36.487L49.1124 36.9506L49.425 36.8242V36.487H48.925ZM47.158 37.019L47.254 37.5097L47.254 37.5097L47.158 37.019ZM41.743 36.335L41.4711 36.7547L41.478 36.759L41.743 36.335ZM39.748 33.903L39.2853 34.0925L39.2861 34.0945L39.748 33.903ZM39.52 27.424L39.9951 27.58L39.9957 27.5779L39.52 27.424ZM40.736 25.201L40.3602 24.8712L40.3564 24.8756L40.736 25.201ZM42.731 23.757L42.534 23.2974L42.5314 23.2986L42.731 23.757ZM47.481 23.51L47.3533 23.9935L47.364 23.9961L47.481 23.51ZM49.438 24.194L49.9025 24.379L50.0768 23.9415L49.6505 23.7414L49.438 24.194ZM48.507 26.531L48.2925 26.9826L48.7741 27.2114L48.9715 26.716L48.507 26.531ZM46.968 25.904L46.8028 26.3759L46.8064 26.3772L46.968 25.904ZM45.467 25.138C44.855 25.138 44.2891 25.2594 43.7804 25.5138L44.2276 26.4082C44.5802 26.2319 44.9897 26.138 45.467 26.138V25.138ZM43.775 25.5165C43.2825 25.7703 42.8685 26.1347 42.534 26.6002L43.346 27.1838C43.5941 26.8386 43.8895 26.5824 44.233 26.4055L43.775 25.5165ZM42.5385 26.5941C42.2026 27.0467 41.9569 27.5884 41.7919 28.2072L42.7581 28.4648C42.8971 27.9436 43.0947 27.5226 43.3415 27.1899L42.5385 26.5941ZM41.7893 28.2173C41.6387 28.8332 41.566 29.5137 41.566 30.255H42.566C42.566 29.5777 42.6326 28.9788 42.7607 28.4547L41.7893 28.2173ZM41.566 30.255C41.566 31.2546 41.684 32.1343 41.9337 32.8831L42.8823 32.5669C42.676 31.9477 42.566 31.1808 42.566 30.255H41.566ZM41.9373 32.8937C42.2074 33.647 42.6383 34.2509 43.2423 34.6736L43.8157 33.8544C43.4063 33.5678 43.09 33.1456 42.8787 32.5563L41.9373 32.8937ZM43.2423 34.6736C43.8531 35.1012 44.6068 35.296 45.467 35.296V34.296C44.7565 34.296 44.2182 34.1361 43.8157 33.8544L43.2423 34.6736ZM45.467 35.296C46.0626 35.296 46.6516 35.2283 47.2333 35.093L47.0067 34.119C46.4991 34.2371 45.9861 34.296 45.467 34.296V35.296ZM47.2308 35.0936C47.8102 34.9619 48.4307 34.7787 49.0914 34.5455L48.7586 33.6025C48.1274 33.8253 47.5444 33.9968 47.0092 34.1184L47.2308 35.0936ZM48.425 34.074V36.487H49.425V34.074H48.425ZM48.7376 36.0234C48.1694 36.2531 47.611 36.4209 47.062 36.5283L47.254 37.5097C47.8703 37.3891 48.4899 37.2022 49.1124 36.9506L48.7376 36.0234ZM47.062 36.5283C46.5169 36.635 45.8974 36.69 45.201 36.69V37.69C45.9486 37.69 46.6338 37.631 47.254 37.5097L47.062 36.5283ZM45.201 36.69C43.8741 36.69 42.8202 36.4186 42.008 35.911L41.478 36.759C42.4898 37.3914 43.7412 37.69 45.201 37.69V36.69ZM42.0149 35.9154C41.2048 35.3906 40.6038 34.6615 40.2099 33.7115L39.2861 34.0945C39.7535 35.2218 40.4825 36.1141 41.4711 36.7546L42.0149 35.9154ZM40.2107 33.7135C39.8096 32.7342 39.602 31.5786 39.602 30.236H38.602C38.602 31.68 38.8251 32.9691 39.2853 34.0925L40.2107 33.7135ZM39.602 30.236C39.602 29.2553 39.7352 28.3715 39.995 27.58L39.045 27.268C38.7475 28.1739 38.602 29.1647 38.602 30.236H39.602ZM39.9957 27.5779C40.2562 26.7728 40.6311 26.0917 41.1156 25.5264L40.3564 24.8756C39.7769 25.5517 39.3411 26.3526 39.0443 27.2701L39.9957 27.5779ZM41.1118 25.5308C41.6061 24.9675 42.2102 24.5292 42.9306 24.2154L42.5314 23.2986C41.6811 23.6688 40.9552 24.1931 40.3602 24.8712L41.1118 25.5308ZM42.928 24.2166C43.6535 23.9056 44.4966 23.744 45.467 23.744V22.744C44.3854 22.744 43.4045 22.9244 42.534 23.2974L42.928 24.2166ZM45.467 23.744C46.0938 23.744 46.7222 23.8267 47.3533 23.9934L47.6087 23.0266C46.8971 22.8386 46.1829 22.744 45.467 22.744V23.744ZM47.364 23.9961C48.016 24.1531 48.6363 24.37 49.2255 24.6466L49.6505 23.7414C48.9984 23.4353 48.314 23.1963 47.598 23.0239L47.364 23.9961ZM48.9735 24.009L48.0425 26.346L48.9715 26.716L49.9025 24.379L48.9735 24.009ZM48.7215 26.0794C48.198 25.8307 47.6673 25.6145 47.1296 25.4308L46.8064 26.3772C47.3073 26.5482 47.8027 26.75 48.2925 26.9826L48.7215 26.0794ZM47.1332 25.4321C46.578 25.2378 46.0219 25.138 45.467 25.138V26.138C45.9001 26.138 46.3446 26.2156 46.8028 26.3759L47.1332 25.4321Z" fill="black" mask="url(#path-11-outside-6_5_2)"/>
<mask id="path-13-outside-7_5_2" maskUnits="userSpaceOnUse" x="53" y="22" width="14" height="16" fill="black">
<rect fill="white" x="53" y="22" width="14" height="16"/>
<path d="M64.355 37L62.721 32.801H57.344L55.729 37H54L59.301 23.377H60.84L66.122 37H64.355ZM60.688 27.177C60.65 27.0757 60.5867 26.892 60.498 26.626C60.4093 26.36 60.3207 26.0877 60.232 25.809C60.156 25.5177 60.0927 25.296 60.042 25.144C59.9787 25.3973 59.909 25.657 59.833 25.923C59.7697 26.1763 59.7 26.4107 59.624 26.626C59.5607 26.8413 59.5037 27.025 59.453 27.177L57.914 31.281H62.208L60.688 27.177Z"/>
</mask>
<path d="M64.355 37L62.721 32.801H57.344L55.729 37H54L59.301 23.377H60.84L66.122 37H64.355ZM60.688 27.177C60.65 27.0757 60.5867 26.892 60.498 26.626C60.4093 26.36 60.3207 26.0877 60.232 25.809C60.156 25.5177 60.0927 25.296 60.042 25.144C59.9787 25.3973 59.909 25.657 59.833 25.923C59.7697 26.1763 59.7 26.4107 59.624 26.626C59.5607 26.8413 59.5037 27.025 59.453 27.177L57.914 31.281H62.208L60.688 27.177Z" fill="white"/>
<path d="M64.355 37L63.889 37.1813L64.013 37.5H64.355V37ZM62.721 32.801L63.187 32.6197L63.063 32.301H62.721V32.801ZM57.344 32.801V32.301H57.0006L56.8773 32.6215L57.344 32.801ZM55.729 37V37.5H56.0724L56.1957 37.1795L55.729 37ZM54 37L53.534 36.8187L53.2689 37.5H54V37ZM59.301 23.377V22.877H58.959L58.835 23.1957L59.301 23.377ZM60.84 23.377L61.3062 23.1962L61.1824 22.877H60.84V23.377ZM66.122 37V37.5H66.8521L66.5882 36.8192L66.122 37ZM60.688 27.177L61.1569 27.0033L61.1562 27.0014L60.688 27.177ZM60.498 26.626L60.0237 26.7841L60.0237 26.7841L60.498 26.626ZM60.232 25.809L59.7482 25.9352L59.7515 25.948L59.7555 25.9606L60.232 25.809ZM60.042 25.144L60.5163 24.9859L59.9734 23.357L59.5569 25.0227L60.042 25.144ZM59.833 25.923L59.3522 25.7856L59.3499 25.7936L59.3479 25.8017L59.833 25.923ZM59.624 26.626L59.1525 26.4596L59.1481 26.4721L59.1443 26.4849L59.624 26.626ZM59.453 27.177L59.9212 27.3526L59.9244 27.3439L59.9273 27.3351L59.453 27.177ZM57.914 31.281L57.4458 31.1054L57.1925 31.781H57.914V31.281ZM62.208 31.281V31.781H62.9264L62.6769 31.1073L62.208 31.281ZM64.821 36.8187L63.187 32.6197L62.255 32.9823L63.889 37.1813L64.821 36.8187ZM62.721 32.301H57.344V33.301H62.721V32.301ZM56.8773 32.6215L55.2623 36.8205L56.1957 37.1795L57.8107 32.9805L56.8773 32.6215ZM55.729 36.5H54V37.5H55.729V36.5ZM54.466 37.1813L59.767 23.5583L58.835 23.1957L53.534 36.8187L54.466 37.1813ZM59.301 23.877H60.84V22.877H59.301V23.877ZM60.3738 23.5578L65.6558 37.1808L66.5882 36.8192L61.3062 23.1962L60.3738 23.5578ZM66.122 36.5H64.355V37.5H66.122V36.5ZM61.1562 27.0014C61.1218 26.9099 61.0612 26.7344 60.9723 26.4679L60.0237 26.7841C60.1122 27.0496 60.1782 27.2415 60.2198 27.3526L61.1562 27.0014ZM60.9723 26.4679C60.8844 26.2041 60.7965 25.934 60.7085 25.6574L59.7555 25.9606C59.8449 26.2414 59.9342 26.5159 60.0237 26.7841L60.9723 26.4679ZM60.7158 25.6828C60.639 25.3883 60.5723 25.1539 60.5163 24.9859L59.5677 25.3021C59.613 25.4381 59.673 25.647 59.7482 25.9352L60.7158 25.6828ZM59.5569 25.0227C59.495 25.2704 59.4268 25.5247 59.3522 25.7856L60.3138 26.0604C60.3912 25.7893 60.4623 25.5243 60.5271 25.2653L59.5569 25.0227ZM59.3479 25.8017C59.2879 26.0419 59.2226 26.261 59.1525 26.4596L60.0955 26.7924C60.1774 26.5603 60.2515 26.3107 60.3181 26.0443L59.3479 25.8017ZM59.1443 26.4849C59.0821 26.6966 59.0269 26.8743 58.9787 27.0189L59.9273 27.3351C59.9805 27.1757 60.0393 26.9861 60.1037 26.7671L59.1443 26.4849ZM58.9848 27.0014L57.4458 31.1054L58.3822 31.4566L59.9212 27.3526L58.9848 27.0014ZM57.914 31.781H62.208V30.781H57.914V31.781ZM62.6769 31.1073L61.1569 27.0033L60.2191 27.3507L61.7391 31.4547L62.6769 31.1073Z" fill="black" mask="url(#path-13-outside-7_5_2)"/>
<mask id="path-15-outside-8_5_2" maskUnits="userSpaceOnUse" x="69" y="22" width="12" height="16" fill="black">
<rect fill="white" x="69" y="22" width="12" height="16"/>
<path d="M76.137 37H74.427V24.935H70.19V23.434H80.355V24.935H76.137V37Z"/>
</mask>
<path d="M76.137 37H74.427V24.935H70.19V23.434H80.355V24.935H76.137V37Z" fill="white"/>
<path d="M76.137 37V37.5H76.637V37H76.137ZM74.427 37H73.927V37.5H74.427V37ZM74.427 24.935H74.927V24.435H74.427V24.935ZM70.19 24.935H69.69V25.435H70.19V24.935ZM70.19 23.434V22.934H69.69V23.434H70.19ZM80.355 23.434H80.855V22.934H80.355V23.434ZM80.355 24.935V25.435H80.855V24.935H80.355ZM76.137 24.935V24.435H75.637V24.935H76.137ZM76.137 36.5H74.427V37.5H76.137V36.5ZM74.927 37V24.935H73.927V37H74.927ZM74.427 24.435H70.19V25.435H74.427V24.435ZM70.69 24.935V23.434H69.69V24.935H70.69ZM70.19 23.934H80.355V22.934H70.19V23.934ZM79.855 23.434V24.935H80.855V23.434H79.855ZM80.355 24.435H76.137V25.435H80.355V24.435ZM75.637 24.935V37H76.637V24.935H75.637Z" fill="black" mask="url(#path-15-outside-8_5_2)"/>
<mask id="path-17-outside-9_5_2" maskUnits="userSpaceOnUse" x="85" y="22" width="15" height="16" fill="black">
<rect fill="white" x="85" y="22" width="15" height="16"/>
<path d="M98.68 30.198C98.68 31.2493 98.547 32.2057 98.281 33.067C98.015 33.9157 97.616 34.6503 97.084 35.271C96.5647 35.8917 95.9123 36.3667 95.127 36.696C94.3543 37.0253 93.455 37.19 92.429 37.19C91.365 37.19 90.4403 37.0253 89.655 36.696C88.8697 36.354 88.2173 35.879 87.698 35.271C87.1787 34.6503 86.7923 33.9093 86.539 33.048C86.2857 32.1867 86.159 31.2303 86.159 30.179C86.159 28.7857 86.387 27.5697 86.843 26.531C87.299 25.4923 87.9893 24.6817 88.914 24.099C89.8513 23.5163 91.0293 23.225 92.448 23.225C93.8033 23.225 94.9433 23.5163 95.868 24.099C96.7927 24.669 97.4893 25.4797 97.958 26.531C98.4393 27.5697 98.68 28.792 98.68 30.198ZM87.964 30.198C87.964 31.338 88.1223 32.3197 88.439 33.143C88.7557 33.9663 89.2433 34.5997 89.902 35.043C90.5733 35.4863 91.4157 35.708 92.429 35.708C93.455 35.708 94.291 35.4863 94.937 35.043C95.5957 34.5997 96.0833 33.9663 96.4 33.143C96.7167 32.3197 96.875 31.338 96.875 30.198C96.875 28.488 96.5203 27.1517 95.811 26.189C95.1017 25.2137 93.9807 24.726 92.448 24.726C91.422 24.726 90.5733 24.9477 89.902 25.391C89.2433 25.8217 88.7557 26.4487 88.439 27.272C88.1223 28.0827 87.964 29.058 87.964 30.198Z"/>
</mask>
<path d="M98.68 30.198C98.68 31.2493 98.547 32.2057 98.281 33.067C98.015 33.9157 97.616 34.6503 97.084 35.271C96.5647 35.8917 95.9123 36.3667 95.127 36.696C94.3543 37.0253 93.455 37.19 92.429 37.19C91.365 37.19 90.4403 37.0253 89.655 36.696C88.8697 36.354 88.2173 35.879 87.698 35.271C87.1787 34.6503 86.7923 33.9093 86.539 33.048C86.2857 32.1867 86.159 31.2303 86.159 30.179C86.159 28.7857 86.387 27.5697 86.843 26.531C87.299 25.4923 87.9893 24.6817 88.914 24.099C89.8513 23.5163 91.0293 23.225 92.448 23.225C93.8033 23.225 94.9433 23.5163 95.868 24.099C96.7927 24.669 97.4893 25.4797 97.958 26.531C98.4393 27.5697 98.68 28.792 98.68 30.198ZM87.964 30.198C87.964 31.338 88.1223 32.3197 88.439 33.143C88.7557 33.9663 89.2433 34.5997 89.902 35.043C90.5733 35.4863 91.4157 35.708 92.429 35.708C93.455 35.708 94.291 35.4863 94.937 35.043C95.5957 34.5997 96.0833 33.9663 96.4 33.143C96.7167 32.3197 96.875 31.338 96.875 30.198C96.875 28.488 96.5203 27.1517 95.811 26.189C95.1017 25.2137 93.9807 24.726 92.448 24.726C91.422 24.726 90.5733 24.9477 89.902 25.391C89.2433 25.8217 88.7557 26.4487 88.439 27.272C88.1223 28.0827 87.964 29.058 87.964 30.198Z" fill="white"/>
<path d="M98.281 33.067L98.7581 33.2165L98.7587 33.2145L98.281 33.067ZM97.084 35.271L96.7043 34.9456L96.7005 34.9501L97.084 35.271ZM95.127 36.696L94.9336 36.2349L94.931 36.236L95.127 36.696ZM89.655 36.696L89.4553 37.1545L89.4616 37.1571L89.655 36.696ZM87.698 35.271L87.3145 35.5919L87.3178 35.5957L87.698 35.271ZM86.539 33.048L86.0593 33.1891L86.0593 33.1891L86.539 33.048ZM86.843 26.531L87.3008 26.732L87.3008 26.732L86.843 26.531ZM88.914 24.099L88.65 23.6743L88.6474 23.676L88.914 24.099ZM95.868 24.099L95.6014 24.522L95.6056 24.5246L95.868 24.099ZM97.958 26.531L97.5013 26.7346L97.5043 26.7412L97.958 26.531ZM89.902 35.043L89.6228 35.4578L89.6265 35.4602L89.902 35.043ZM94.937 35.043L94.6578 34.6282L94.6541 34.6307L94.937 35.043ZM96.4 33.143L95.9333 32.9635L96.4 33.143ZM95.811 26.189L95.4066 26.4831L95.4085 26.4856L95.811 26.189ZM89.902 25.391L90.1756 25.8095L90.1775 25.8082L89.902 25.391ZM88.439 27.272L88.9047 27.4539L88.9057 27.4515L88.439 27.272ZM98.18 30.198C98.18 31.2074 98.0523 32.1131 97.8033 32.9195L98.7587 33.2145C99.0417 32.2982 99.18 31.2912 99.18 30.198H98.18ZM97.8039 32.9175C97.5563 33.7072 97.1886 34.3807 96.7044 34.9456L97.4636 35.5964C98.0434 34.9199 98.4737 34.1241 98.7581 33.2165L97.8039 32.9175ZM96.7005 34.9501C96.2351 35.5063 95.6493 35.9348 94.9336 36.2349L95.3204 37.1571C96.1754 36.7985 96.8942 36.277 97.4675 35.5919L96.7005 34.9501ZM94.931 36.236C94.2324 36.5338 93.4022 36.69 92.429 36.69V37.69C93.5078 37.69 94.4763 37.5169 95.3231 37.156L94.931 36.236ZM92.429 36.69C91.4154 36.69 90.5593 36.533 89.8484 36.2349L89.4616 37.1571C90.3214 37.5176 91.3146 37.69 92.429 37.69V36.69ZM89.8546 36.2376C89.1338 35.9237 88.5448 35.4925 88.0782 34.9463L87.3178 35.5957C87.8899 36.2655 88.6055 36.7843 89.4554 37.1544L89.8546 36.2376ZM88.0815 34.9501C87.6108 34.3876 87.2548 33.7096 87.0187 32.9069L86.0593 33.1891C86.3299 34.1091 86.7465 34.913 87.3145 35.5919L88.0815 34.9501ZM87.0187 32.9069C86.7809 32.0984 86.659 31.1905 86.659 30.179H85.659C85.659 31.2701 85.7904 32.2749 86.0593 33.1891L87.0187 32.9069ZM86.659 30.179C86.659 28.8395 86.8782 27.6946 87.3008 26.732L86.3852 26.33C85.8958 27.4447 85.659 28.7319 85.659 30.179H86.659ZM87.3008 26.732C87.7183 25.7811 88.3437 25.0493 89.1806 24.522L88.6474 23.676C87.6349 24.314 86.8797 25.2036 86.3852 26.33L87.3008 26.732ZM89.178 24.5236C90.0164 24.0025 91.0964 23.725 92.448 23.725V22.725C90.9623 22.725 89.6863 23.0302 88.65 23.6744L89.178 24.5236ZM92.448 23.725C93.7316 23.725 94.7738 24.0005 95.6014 24.522L96.1346 23.676C95.1129 23.0322 93.8751 22.725 92.448 22.725V23.725ZM95.6056 24.5246C96.4394 25.0386 97.071 25.7693 97.5013 26.7346L98.4147 26.3274C97.9076 25.19 97.1459 24.2994 96.1304 23.6734L95.6056 24.5246ZM97.5043 26.7412C97.949 27.7008 98.18 28.8484 98.18 30.198H99.18C99.18 28.7356 98.9297 27.4386 98.4117 26.3208L97.5043 26.7412ZM87.464 30.198C87.464 31.3823 87.6282 32.4279 87.9723 33.3225L88.9057 32.9635C88.6164 32.2115 88.464 31.2937 88.464 30.198H87.464ZM87.9723 33.3225C88.3216 34.2305 88.8696 34.9508 89.6228 35.4578L90.1812 34.6282C89.6171 34.2485 89.1898 33.7021 88.9057 32.9635L87.9723 33.3225ZM89.6265 35.4602C90.3984 35.97 91.3431 36.208 92.429 36.208V35.208C91.4883 35.208 90.7482 35.0026 90.1775 34.6258L89.6265 35.4602ZM92.429 36.208C93.5251 36.208 94.4683 35.971 95.2199 35.4553L94.6541 34.6307C94.1137 35.0016 93.3849 35.208 92.429 35.208V36.208ZM95.2162 35.4578C95.9694 34.9508 96.5174 34.2305 96.8667 33.3225L95.9333 32.9635C95.6492 33.7021 95.2219 34.2485 94.6578 34.6282L95.2162 35.4578ZM96.8667 33.3225C97.2108 32.4279 97.375 31.3823 97.375 30.198H96.375C96.375 31.2937 96.2226 32.2115 95.9333 32.9635L96.8667 33.3225ZM97.375 30.198C97.375 28.4256 97.0082 26.9709 96.2135 25.8924L95.4085 26.4856C96.0325 27.3324 96.375 28.5504 96.375 30.198H97.375ZM96.2154 25.8949C95.3869 24.7557 94.0926 24.226 92.448 24.226V25.226C93.8688 25.226 94.8165 25.6716 95.4066 26.4831L96.2154 25.8949ZM92.448 24.226C91.3508 24.226 90.3994 24.4634 89.6265 24.9738L90.1775 25.8082C90.7473 25.432 91.4932 25.226 92.448 25.226V24.226ZM89.6284 24.9725C88.8714 25.4675 88.3219 26.1836 87.9723 27.0925L88.9057 27.4515C89.1894 26.7137 89.6153 26.1759 90.1756 25.8095L89.6284 24.9725ZM87.9733 27.0901C87.6281 27.9736 87.464 29.014 87.464 30.198H88.464C88.464 29.102 88.6165 28.1917 88.9047 27.4539L87.9733 27.0901Z" fill="black" mask="url(#path-17-outside-9_5_2)"/>
<mask id="path-19-outside-10_5_2" maskUnits="userSpaceOnUse" x="103" y="22" width="15" height="16" fill="black">
<rect fill="white" x="103" y="22" width="15" height="16"/>
<path d="M109.828 37L105.363 25.106H105.287C105.312 25.3593 105.331 25.6823 105.344 26.075C105.369 26.4677 105.388 26.8983 105.401 27.367C105.414 27.823 105.42 28.2917 105.42 28.773V37H103.843V23.434H106.37L110.55 34.549H110.626L114.882 23.434H117.39V37H115.699V28.659C115.699 28.2157 115.705 27.7787 115.718 27.348C115.731 26.9047 115.75 26.493 115.775 26.113C115.8 25.7203 115.819 25.391 115.832 25.125H115.756L111.234 37H109.828Z"/>
</mask>
<path d="M109.828 37L105.363 25.106H105.287C105.312 25.3593 105.331 25.6823 105.344 26.075C105.369 26.4677 105.388 26.8983 105.401 27.367C105.414 27.823 105.42 28.2917 105.42 28.773V37H103.843V23.434H106.37L110.55 34.549H110.626L114.882 23.434H117.39V37H115.699V28.659C115.699 28.2157 115.705 27.7787 115.718 27.348C115.731 26.9047 115.75 26.493 115.775 26.113C115.8 25.7203 115.819 25.391 115.832 25.125H115.756L111.234 37H109.828Z" fill="white"/>
<path d="M109.828 37L109.36 37.1757L109.482 37.5H109.828V37ZM105.363 25.106L105.831 24.9303L105.709 24.606H105.363V25.106ZM105.287 25.106V24.606H104.735L104.789 25.1558L105.287 25.106ZM105.344 26.075L104.844 26.0911L104.845 26.0992L104.845 26.1072L105.344 26.075ZM105.401 27.367L104.901 27.3805L104.901 27.3809L105.401 27.367ZM105.42 37V37.5H105.92V37H105.42ZM103.843 37H103.343V37.5H103.843V37ZM103.843 23.434V22.934H103.343V23.434H103.843ZM106.37 23.434L106.838 23.258L106.716 22.934H106.37V23.434ZM110.55 34.549L110.082 34.725L110.204 35.049H110.55V34.549ZM110.626 34.549V35.049H110.97L111.093 34.7278L110.626 34.549ZM114.882 23.434V22.934H114.538L114.415 23.2552L114.882 23.434ZM117.39 23.434H117.89V22.934H117.39V23.434ZM117.39 37V37.5H117.89V37H117.39ZM115.699 37H115.199V37.5H115.699V37ZM115.718 27.348L116.218 27.3627L116.218 27.3623L115.718 27.348ZM115.775 26.113L116.274 26.1463L116.274 26.1452L115.775 26.113ZM115.832 25.125L116.331 25.1488L116.356 24.625H115.832V25.125ZM115.756 25.125V24.625H115.411L115.289 24.9471L115.756 25.125ZM111.234 37V37.5H111.579L111.701 37.1779L111.234 37ZM110.296 36.8243L105.831 24.9303L104.895 25.2817L109.36 37.1757L110.296 36.8243ZM105.363 24.606H105.287V25.606H105.363V24.606ZM104.789 25.1558C104.813 25.3936 104.832 25.7044 104.844 26.0911L105.844 26.0589C105.831 25.6603 105.811 25.325 105.785 25.0562L104.789 25.1558ZM104.845 26.1072C104.87 26.4926 104.889 26.9169 104.901 27.3805L105.901 27.3535C105.888 26.8797 105.869 26.4427 105.843 26.0428L104.845 26.1072ZM104.901 27.3809C104.914 27.832 104.92 28.296 104.92 28.773H105.92C105.92 28.2873 105.914 27.814 105.901 27.3531L104.901 27.3809ZM104.92 28.773V37H105.92V28.773H104.92ZM105.42 36.5H103.843V37.5H105.42V36.5ZM104.343 37V23.434H103.343V37H104.343ZM103.843 23.934H106.37V22.934H103.843V23.934ZM105.902 23.61L110.082 34.725L111.018 34.373L106.838 23.258L105.902 23.61ZM110.55 35.049H110.626V34.049H110.55V35.049ZM111.093 34.7278L115.349 23.6128L114.415 23.2552L110.159 34.3702L111.093 34.7278ZM114.882 23.934H117.39V22.934H114.882V23.934ZM116.89 23.434V37H117.89V23.434H116.89ZM117.39 36.5H115.699V37.5H117.39V36.5ZM116.199 37V28.659H115.199V37H116.199ZM116.199 28.659C116.199 28.2204 116.205 27.7883 116.218 27.3627L115.218 27.3333C115.205 27.769 115.199 28.2109 115.199 28.659H116.199ZM116.218 27.3623C116.23 26.9243 116.249 26.519 116.274 26.1463L115.276 26.0797C115.25 26.467 115.231 26.8851 115.218 27.3337L116.218 27.3623ZM116.274 26.1452C116.299 25.7509 116.319 25.4186 116.331 25.1488L115.333 25.1012C115.32 25.3634 115.301 25.6898 115.276 26.0808L116.274 26.1452ZM115.832 24.625H115.756V25.625H115.832V24.625ZM115.289 24.9471L110.767 36.8221L111.701 37.1779L116.223 25.3029L115.289 24.9471ZM111.234 36.5H109.828V37.5H111.234V36.5Z" fill="black" mask="url(#path-19-outside-10_5_2)"/>
</g>
<defs>
<clipPath id="clip0_5_2">
<rect width="122" height="46" fill="white"/>
</clipPath>
</defs>
</svg>
