<svg width="25" height="37" viewBox="0 0 25 37" fill="none" xmlns="http://www.w3.org/2000/svg">
<g opacity="0.74">
<path d="M24.6036 12.1101C24.6036 5.47851 19.1151 0.104215 12.3482 0.113293C5.6277 0.122371 0.102125 5.56022 0.120652 12.1465C0.129915 14.6702 0.931194 17.0078 2.29753 18.937L7.23952 27.3252L12.3621 36.0176L17.4848 27.3252L22.4267 18.937C23.7977 16.9988 24.6036 14.6475 24.6036 12.1101Z" fill="#6CACE4"/>
<path d="M12.362 36.2538L2.19546 18.9962C0.768906 16.9808 0.00931297 14.6114 4.9636e-05 12.1466C-0.00921369 8.92842 1.27839 5.88722 3.62201 3.58135C5.96563 1.27549 9.06422 0 12.3434 0C12.3481 0 12.3527 0 12.3573 0C15.6551 0 18.7583 1.25733 21.0926 3.54504C23.4316 5.83275 24.7192 8.87849 24.7192 12.1149C24.7192 14.5932 23.9596 16.9763 22.5192 19.0098L12.362 36.2538ZM12.362 0.231495C12.3573 0.231495 12.3527 0.231495 12.3481 0.231495C9.12906 0.236034 6.09069 1.48429 3.79338 3.74476C1.49145 6.00978 0.231633 8.99197 0.240896 12.1466C0.250159 14.5614 0.995857 16.89 2.39925 18.8736L12.362 35.7863L22.3247 18.8781C23.742 16.8764 24.4877 14.5388 24.4877 12.1103C24.4877 8.93296 23.2232 5.95077 20.9305 3.70391C18.6379 1.46159 15.5995 0.231495 12.362 0.231495Z" fill="#6CACE4"/>
<path d="M12.3627 18.8396C16.412 18.8396 19.6946 15.6225 19.6946 11.6542C19.6946 7.68576 16.412 4.46875 12.3627 4.46875C8.31338 4.46875 5.03076 7.68576 5.03076 11.6542C5.03076 15.6225 8.31338 18.8396 12.3627 18.8396Z" fill="#06387A"/>
<path d="M12.3625 18.9564C8.25422 18.9564 4.91016 15.6792 4.91016 11.653C4.91016 7.62684 8.25422 4.34961 12.3625 4.34961C16.4708 4.34961 19.8149 7.62684 19.8149 11.653C19.8149 15.6792 16.4708 18.9564 12.3625 18.9564ZM12.3625 4.58564C8.3839 4.58564 5.14637 7.75848 5.14637 11.6576C5.14637 15.5567 8.3839 18.7295 12.3625 18.7295C16.3411 18.7295 19.5786 15.5567 19.5786 11.6576C19.5786 7.75394 16.3411 4.58564 12.3625 4.58564Z" fill="#003274"/>
</g>
</svg>
