<svg width="28" height="30" viewBox="0 0 28 30" fill="none" xmlns="http://www.w3.org/2000/svg">
<g clip-path="url(#clip0_3_12)">
<path opacity="0.74" d="M26.2715 21.9835C24.5865 21.2039 22.9567 20.2851 21.4373 19.255C20.36 20.2294 19.2827 21.1761 18.1777 22.1505C17.4042 22.8466 15.8297 22.7631 14.7247 21.8721C11.8518 19.5334 9.36567 16.7213 7.43199 13.5473C6.68614 12.3501 6.79664 10.7352 7.57011 10.067C8.64744 9.09255 9.7524 8.1459 10.8297 7.17143C10.001 5.52874 9.2828 3.80253 8.73032 1.99278C8.12259 0.0159857 6.6309 -0.624388 5.19445 0.684195C4.08949 1.65867 3.01216 2.63315 1.9072 3.60763C0.470751 4.88837 -0.413215 7.61691 0.194513 9.5937C2.95691 18.4475 9.33804 25.7422 17.7357 29.5844C19.6142 30.4475 22.4042 29.8907 23.8406 28.6099C24.9456 27.6355 26.0229 26.661 27.1279 25.6865C28.5919 24.3779 28.15 22.8188 26.2715 21.9835Z" fill="#025EA1"/>
</g>
<defs>
<clipPath id="clip0_3_12">
<rect width="28" height="30" fill="white"/>
</clipPath>
</defs>
</svg>
