<svg width="16" height="16" viewBox="0 0 16 16" fill="none" xmlns="http://www.w3.org/2000/svg">
<path d="M6.5 14.5V10.995C6.5 10.75 6.75 10.5 7 10.5H9C9.25 10.5 9.5 10.75 9.5 11V14.5C9.5 14.6326 9.55268 14.7598 9.64645 14.8536C9.74022 14.9473 9.86739 15 10 15H14C14.1326 15 14.2598 14.9473 14.3536 14.8536C14.4473 14.7598 14.5 14.6326 14.5 14.5V7.5C14.5001 7.4343 14.4873 7.36921 14.4622 7.30847C14.4372 7.24773 14.4004 7.19252 14.354 7.146L13 5.793V2.5C13 2.36739 12.9473 2.24022 12.8536 2.14645C12.7598 2.05268 12.6326 2 12.5 2H11.5C11.3674 2 11.2402 2.05268 11.1464 2.14645C11.0527 2.24022 11 2.36739 11 2.5V3.793L8.354 1.146C8.30756 1.09944 8.25238 1.0625 8.19163 1.03729C8.13089 1.01208 8.06577 0.999107 8 0.999107C7.93423 0.999107 7.86911 1.01208 7.80837 1.03729C7.74762 1.0625 7.69245 1.09944 7.646 1.146L1.646 7.146C1.5996 7.19252 1.56282 7.24773 1.53777 7.30847C1.51272 7.36921 1.49988 7.4343 1.5 7.5V14.5C1.5 14.6326 1.55268 14.7598 1.64645 14.8536C1.74022 14.9473 1.86739 15 2 15H6C6.13261 15 6.25979 14.9473 6.35355 14.8536C6.44732 14.7598 6.5 14.6326 6.5 14.5Z" fill="white"/>
</svg>
