<svg width="65" height="66" viewBox="0 0 65 66" fill="none" xmlns="http://www.w3.org/2000/svg">
<path d="M37.56 37.88C36.6613 38.872 35.4888 39.5753 34.1905 39.901C32.8922 40.2268 31.5265 40.1604 30.266 39.7103C29.0055 39.2601 27.9066 38.4464 27.1084 37.372C26.3102 36.2975 25.8483 35.0106 25.7813 33.6737C25.7142 32.3369 26.045 31.0102 26.7317 29.8613C27.4184 28.7124 28.4303 27.7928 29.6395 27.2188C30.8486 26.6447 32.2008 26.442 33.5252 26.6363C34.8495 26.8305 36.0866 27.4129 37.08 28.31C37.7417 28.9057 38.2792 29.6263 38.6616 30.4303C39.044 31.2344 39.2639 32.106 39.3085 32.9953C39.3531 33.8845 39.2216 34.7738 38.9215 35.6121C38.6215 36.4503 38.1588 37.2211 37.56 37.88Z" fill="url(#paint0_radial_0_1)"/>
<path d="M34.31 10.14C34.87 10.7 35.4 11.27 35.87 11.84C37.5054 13.791 38.8524 15.9665 39.87 18.3C41.475 18.5993 43.109 18.7134 44.74 18.64H45.03H45.29C49.7455 18.2329 53.9041 16.23 57 13L57.41 12.58C56.79 11.84 56.16 11.12 55.47 10.43C49.9624 4.9419 42.664 1.6188 34.9084 1.06797C27.1528 0.517149 19.4579 2.77539 13.23 7.43001C23.13 2.61001 30 5.93001 34.31 10.14Z" fill="url(#paint1_linear_0_1)"/>
<path d="M11.39 43C11.59 42.23 11.82 41.49 12.07 40.8C12.9469 38.4106 14.159 36.1581 15.67 34.11C15.1291 32.5719 14.411 31.102 13.53 29.73L13.37 29.48L13.22 29.27C10.6542 25.6504 6.87553 23.071 2.57001 22L2.00001 21.83C1.67001 22.73 1.37001 23.64 1.11001 24.58C-0.893618 32.0912 -0.128111 40.0725 3.26669 47.0659C6.66149 54.0593 12.459 59.5979 19.6 62.67C10.45 56.47 9.88001 48.83 11.39 43Z" fill="url(#paint2_linear_0_1)"/>
<path d="M51.4 46.47C50.63 46.68 49.87 46.85 49.14 46.98C46.6334 47.414 44.0776 47.4881 41.55 47.2C40.4923 48.4241 39.5796 49.7663 38.83 51.2C38.83 51.29 38.74 51.37 38.7 51.46C38.6592 51.5381 38.6225 51.6182 38.59 51.7C36.7189 55.7334 36.3639 60.3061 37.59 64.58C37.59 64.77 37.7 64.96 37.76 65.15C38.7 64.98 39.65 64.8 40.59 64.55C48.0833 62.5224 54.5995 57.8718 58.9529 51.4446C63.3062 45.0173 65.2072 37.2407 64.31 29.53C63.51 40.56 57.18 44.86 51.4 46.47Z" fill="url(#paint3_linear_0_1)"/>
<path d="M13.18 7.43001C8.43911 10.7424 4.73286 15.3292 2.48999 20.66C5.82476 21.3641 8.91407 22.9375 11.4447 25.2205C13.9754 27.5035 15.8574 30.4151 16.9 33.66C17.79 33.09 20.53 30.92 22.37 24.96C24.6 17.75 28.82 12.43 34.31 10.11C34.31 10.14 27.36 0.250008 13.18 7.43001Z" fill="url(#paint4_linear_0_1)"/>
<path d="M35.44 59.34C35.4361 54.5086 37.2454 49.8516 40.51 46.29L40.56 46.22C39.89 45.51 37.56 43.77 31.56 45.13C24.25 46.8 16.13 46.61 11.39 43C11.39 43 6.29001 54 19.6 62.65C24.8308 65.1004 30.6487 66.0192 36.38 65.3C35.7418 63.3784 35.4242 61.3648 35.44 59.34Z" fill="url(#paint5_linear_0_1)"/>
<path d="M58.2 13.66C56.4095 15.695 54.2068 17.3261 51.7379 18.445C49.2691 19.5639 46.5906 20.1451 43.88 20.15C42.4517 20.1449 41.0277 19.9941 39.63 19.7H39.56C39.28 20.7 39.06 23.55 43.11 27.91C48.24 33.45 52.11 40.57 51.4 46.48C51.4 46.48 63.4 45.41 64.31 29.54C63.8145 23.7757 61.696 18.2698 58.2 13.66Z" fill="url(#paint6_linear_0_1)"/>
<defs>
<radialGradient id="paint0_radial_0_1" cx="0" cy="0" r="1" gradientUnits="userSpaceOnUse" gradientTransform="translate(30.4288 28.5576) scale(9.5077)">
<stop stop-color="#4495D1"/>
<stop offset="1" stop-color="#15256D"/>
</radialGradient>
<linearGradient id="paint1_linear_0_1" x1="23.2701" y1="3.17717" x2="51.7241" y2="14.6323" gradientUnits="userSpaceOnUse">
<stop stop-color="#4495D1"/>
<stop offset="1" stop-color="#15256D"/>
</linearGradient>
<linearGradient id="paint2_linear_0_1" x1="10.9039" y1="56.0784" x2="6.60704" y2="25.7115" gradientUnits="userSpaceOnUse">
<stop stop-color="#4495D1"/>
<stop offset="1" stop-color="#15256D"/>
</linearGradient>
<linearGradient id="paint3_linear_0_1" x1="62.9749" y1="40.3643" x2="38.8275" y2="59.2786" gradientUnits="userSpaceOnUse">
<stop stop-color="#4495D1"/>
<stop offset="1" stop-color="#15256D"/>
</linearGradient>
<linearGradient id="paint4_linear_0_1" x1="11.88" y1="24.95" x2="24.67" y2="5.32001" gradientUnits="userSpaceOnUse">
<stop stop-color="#4495D1"/>
<stop offset="1" stop-color="#15256D"/>
</linearGradient>
<linearGradient id="paint5_linear_0_1" x1="36.08" y1="52.93" x2="13.14" y2="55.27" gradientUnits="userSpaceOnUse">
<stop stop-color="#4495D1"/>
<stop offset="1" stop-color="#15256D"/>
</linearGradient>
<linearGradient id="paint6_linear_0_1" x1="50.85" y1="19.75" x2="55.52" y2="43.36" gradientUnits="userSpaceOnUse">
<stop stop-color="#4495D1"/>
<stop offset="1" stop-color="#15256D"/>
</linearGradient>
</defs>
</svg>
