<svg width="179" height="81" viewBox="0 0 179 81" fill="none" xmlns="http://www.w3.org/2000/svg">
<g clip-path="url(#clip0_9_79)">
<mask id="mask0_9_79" style="mask-type:luminance" maskUnits="userSpaceOnUse" x="0" y="0" width="179" height="81">
<path d="M178.984 0H0V81H178.984V0Z" fill="white"/>
</mask>
<g mask="url(#mask0_9_79)">
<path d="M94.9813 6.59961H94.1416V74.4576H94.9813V6.59961Z" fill="white"/>
<path d="M104.267 52.7775H103V42.9368H105.899C106.433 42.9188 106.966 42.9773 107.483 43.1105C107.899 43.2101 108.289 43.3987 108.624 43.6634C108.944 43.9162 109.199 44.241 109.369 44.6111C109.542 45.0539 109.628 45.5259 109.622 46.0011C109.649 46.4413 109.573 46.8816 109.4 47.2873C109.227 47.6931 108.961 48.0531 108.624 48.3389C107.822 48.9197 106.842 49.2045 105.852 49.1445H104.267V52.7775ZM104.267 48.0388H105.852C106.485 48.085 107.115 47.9182 107.642 47.5649C107.855 47.3869 108.022 47.1607 108.13 46.9052C108.237 46.6496 108.282 46.3721 108.26 46.0959C108.283 45.8218 108.239 45.5462 108.131 45.293C108.024 45.0397 107.856 44.8165 107.642 44.6427C107.11 44.3025 106.482 44.142 105.852 44.1846H104.267V48.0388Z" fill="white"/>
<path d="M116.705 52.9008C116.069 52.9155 115.438 52.7971 114.851 52.5533C114.313 52.33 113.831 51.9901 113.441 51.5582C113.036 51.0981 112.728 50.5607 112.538 49.9786C112.327 49.2931 112.225 48.5789 112.237 47.862C112.221 47.1437 112.328 46.4279 112.554 45.7454C112.75 45.1626 113.063 44.6253 113.473 44.1659C113.855 43.7285 114.332 43.383 114.867 43.1549C115.422 42.9147 116.02 42.791 116.625 42.7916C117.288 42.7811 117.945 42.9047 118.558 43.1549C119.101 43.3915 119.584 43.748 119.968 44.1974C120.365 44.6582 120.662 45.1961 120.84 45.777C121.049 46.4356 121.151 47.1237 121.141 47.8146C121.158 48.5614 121.04 49.3052 120.792 50.0102C120.603 50.5963 120.29 51.135 119.873 51.5898C119.48 52.0103 118.998 52.3392 118.463 52.5533C117.904 52.7793 117.308 52.8973 116.705 52.9008ZM116.831 51.732C117.247 51.7493 117.661 51.6698 118.041 51.4998C118.42 51.3298 118.755 51.074 119.018 50.7526C119.61 49.9038 119.89 48.8771 119.81 47.8462C119.822 47.2603 119.753 46.6756 119.604 46.1087C119.474 45.666 119.259 45.2528 118.97 44.8925C118.705 44.5766 118.361 44.3368 117.972 44.1974C117.554 44.0331 117.107 43.9526 116.657 43.9605C116.243 43.9617 115.833 44.0477 115.453 44.2132C115.074 44.369 114.737 44.6127 114.471 44.924C114.177 45.2833 113.956 45.6965 113.821 46.1403C113.652 46.693 113.572 47.2687 113.583 47.8462C113.567 48.4449 113.647 49.0423 113.821 49.6153C113.953 50.0604 114.174 50.4742 114.471 50.8316C114.755 51.1478 115.107 51.3962 115.5 51.5582C115.929 51.7 116.381 51.759 116.831 51.732Z" fill="white"/>
<path d="M131.2 52.5046C130.895 52.6396 130.576 52.7402 130.249 52.8047C129.851 52.8701 129.449 52.9018 129.045 52.8995C128.344 52.9103 127.647 52.798 126.985 52.5678C126.393 52.3501 125.854 52.0111 125.401 51.5727C124.971 51.12 124.642 50.5817 124.435 49.9931C124.205 49.3331 124.092 48.6382 124.102 47.9397C124.129 47.1886 124.279 46.4469 124.546 45.7441C124.758 45.1581 125.086 44.6208 125.512 44.1645C125.955 43.7137 126.497 43.3728 127.096 43.1694C127.737 42.9417 128.413 42.8294 129.093 42.8377C129.555 42.8272 130.017 42.8642 130.471 42.9483C130.768 43.0147 131.06 43.1045 131.342 43.2168L131.105 44.3225C130.797 44.2103 130.479 44.1309 130.154 44.0855C129.845 44.0362 129.533 44.0098 129.219 44.0066C128.725 43.9731 128.23 44.0446 127.766 44.2161C127.301 44.3876 126.879 44.6554 126.526 45.0017C125.855 45.8099 125.526 46.8464 125.607 47.8923C125.608 48.4301 125.699 48.9639 125.876 49.4718C126.033 49.9231 126.281 50.3372 126.605 50.6881C126.935 51.0247 127.335 51.2837 127.778 51.4463C128.285 51.6319 128.822 51.7229 129.362 51.7148C129.676 51.7141 129.989 51.6823 130.297 51.6201C130.59 51.5786 130.874 51.4878 131.136 51.3515L131.2 52.5046Z" fill="white"/>
<path d="M140.073 50.1382H135.859L134.893 52.7761H133.609L137.38 42.9512H138.647L142.339 52.7761H141.024L140.073 50.1382ZM136.271 48.9851H139.661L138.077 44.357L136.271 48.9851Z" fill="white"/>
<path d="M147.519 52.7743H146.252V44.1025H143.337V42.9336H150.435V44.1025H147.519V52.7743Z" fill="white"/>
<path d="M157.025 52.9026C156.39 52.9172 155.758 52.7988 155.172 52.5551C154.633 52.3318 154.152 51.9919 153.761 51.56C153.356 51.0999 153.049 50.5625 152.858 49.9804C152.642 49.2958 152.535 48.5816 152.542 47.8638C152.531 47.1445 152.643 46.4287 152.874 45.7472C153.07 45.1675 153.377 44.6311 153.777 44.1676C154.165 43.7296 154.647 43.3841 155.187 43.1567C155.753 42.9176 156.363 42.7992 156.978 42.8092C157.64 42.7987 158.298 42.9223 158.911 43.1725C159.454 43.4091 159.936 43.7655 160.321 44.215C160.712 44.6797 161.008 45.2164 161.192 45.7946C161.394 46.455 161.496 47.1418 161.493 47.8322C161.502 48.5785 161.384 49.3208 161.145 50.0278C160.949 50.611 160.636 51.1484 160.226 51.6074C159.832 52.0278 159.351 52.3568 158.816 52.5709C158.246 52.7955 157.638 52.9081 157.025 52.9026ZM157.152 51.7337C157.578 51.7599 158.004 51.6847 158.395 51.5145C158.786 51.3442 159.131 51.0837 159.402 50.7544C159.987 49.9023 160.266 48.8781 160.194 47.848C160.211 47.2609 160.136 46.6747 159.972 46.1105C159.854 45.6663 159.644 45.2519 159.354 44.8942C159.089 44.5784 158.745 44.3386 158.356 44.1992C157.937 44.036 157.491 43.9556 157.041 43.9623C156.622 43.9652 156.207 44.0511 155.821 44.215C155.449 44.375 155.118 44.6182 154.855 44.9258C154.561 45.2851 154.34 45.6983 154.205 46.1421C154.036 46.6947 153.956 47.2705 153.967 47.848C153.93 48.4432 153.989 49.0406 154.142 49.6171C154.266 50.0653 154.488 50.4806 154.791 50.8334C155.073 51.1458 155.419 51.3937 155.805 51.56C156.24 51.7001 156.696 51.759 157.152 51.7337Z" fill="white"/>
<path d="M174.517 52.7743H173.25L172.632 45.0976L170.145 52.7743H168.814L166.342 45.1292L165.74 52.7743H164.457L165.312 42.9494H166.897L169.558 51.4001L172.078 42.9336H173.662L174.517 52.7743Z" fill="white"/>
<path d="M126.265 33.549C125.902 34.3537 125.534 35.028 125.16 35.572C124.797 36.1047 124.367 36.507 123.868 36.779C123.369 37.0397 122.735 37.17 121.964 37.17C121.647 37.17 121.346 37.1473 121.063 37.102C120.791 37.0567 120.542 36.9943 120.315 36.915V35.402C120.542 35.504 120.785 35.589 121.046 35.657C121.307 35.7137 121.579 35.742 121.862 35.742C122.281 35.742 122.638 35.6853 122.933 35.572C123.239 35.4473 123.505 35.249 123.732 34.977C123.97 34.705 124.191 34.3423 124.395 33.889L119.72 24.862H121.403L124.786 31.543C124.831 31.6223 124.877 31.7187 124.922 31.832C124.967 31.934 125.013 32.0417 125.058 32.155C125.115 32.2683 125.16 32.376 125.194 32.478H125.262C125.296 32.3987 125.33 32.308 125.364 32.206C125.409 32.0927 125.449 31.985 125.483 31.883C125.528 31.7697 125.568 31.6733 125.602 31.594L128.526 24.862H130.141L126.265 33.549Z" fill="white"/>
<path d="M141.798 37L140.336 33.243H135.525L134.08 37H132.533L137.276 24.811H138.653L143.379 37H141.798ZM138.517 28.211C138.483 28.1203 138.426 27.956 138.347 27.718C138.268 27.48 138.188 27.2363 138.109 26.987C138.041 26.7263 137.984 26.528 137.939 26.392C137.882 26.6187 137.82 26.851 137.752 27.089C137.695 27.3157 137.633 27.5253 137.565 27.718C137.508 27.9107 137.457 28.075 137.412 28.211L136.035 31.883H139.877L138.517 28.211Z" fill="white"/>
<path d="M155.356 27.701C155.356 28.5283 155.095 29.1857 154.574 29.673C154.053 30.149 153.356 30.455 152.483 30.591V30.659C153.503 30.795 154.279 31.1123 154.812 31.611C155.345 32.1097 155.611 32.7613 155.611 33.566C155.611 34.28 155.43 34.909 155.067 35.453C154.704 35.9857 154.16 36.405 153.435 36.711C152.71 37.017 151.803 37.17 150.715 37.17C150.058 37.17 149.429 37.119 148.828 37.017C148.239 36.9263 147.689 36.7563 147.179 36.507V35.113C147.53 35.283 147.904 35.4303 148.301 35.555C148.709 35.6683 149.117 35.759 149.525 35.827C149.933 35.8837 150.324 35.912 150.698 35.912C151.786 35.912 152.608 35.708 153.163 35.3C153.73 34.892 154.013 34.314 154.013 33.566C154.013 32.7953 153.684 32.2343 153.027 31.883C152.37 31.5317 151.452 31.356 150.273 31.356H148.539V30.081H150.188C150.993 30.081 151.656 29.9903 152.177 29.809C152.71 29.6277 153.106 29.3727 153.367 29.044C153.639 28.704 153.775 28.3073 153.775 27.854C153.775 27.242 153.548 26.7717 153.095 26.443C152.642 26.1143 152.052 25.95 151.327 25.95C150.568 25.95 149.933 26.0463 149.423 26.239C148.924 26.4317 148.437 26.681 147.961 26.987L147.23 25.95C147.547 25.712 147.91 25.5023 148.318 25.321C148.737 25.1283 149.202 24.9753 149.712 24.862C150.222 24.7487 150.766 24.692 151.344 24.692C152.217 24.692 152.948 24.8223 153.537 25.083C154.138 25.3437 154.591 25.7007 154.897 26.154C155.203 26.596 155.356 27.1117 155.356 27.701Z" fill="white"/>
<path d="M47.3557 46.3296C46.6072 47.1587 45.7018 47.8322 44.6914 48.3114C43.681 48.7905 42.5856 49.0659 41.4682 49.1217C40.3507 49.1775 39.2332 49.0125 38.1799 48.6364C37.1266 48.2603 36.1582 47.6803 35.3304 46.9299C33.6601 45.4105 32.6596 43.2947 32.5468 41.0432C32.434 38.7918 33.2182 36.5871 34.7284 34.9094C35.478 34.0821 36.3839 33.4103 37.3941 32.9323C38.4044 32.4543 39.4994 32.1796 40.6162 32.1239C41.7331 32.0681 42.85 32.2325 43.9031 32.6074C44.9562 32.9824 45.9249 33.5607 46.7536 34.3092C48.4277 35.8263 49.4309 37.9428 49.5437 40.1955C49.6566 42.4482 48.8699 44.6538 47.3557 46.3296Z" fill="white"/>
<path d="M21.2767 40.911C21.2767 40.911 26.0297 38.5101 28.7707 27.8006C31.5116 17.0912 41.8733 12.1314 41.8733 12.1314C41.8733 12.1314 19.8984 -9.61923 3.2627 24.4835C7.401 25.5073 11.2168 27.5465 14.363 30.4156C17.5092 33.2847 19.8859 36.8926 21.2767 40.911Z" fill="white"/>
<path d="M23.3217 3.74373C23.3217 3.74373 40.2583 0.426645 50.2556 21.577C50.2556 21.577 61.9481 25.3679 72.2305 14.5321C72.2305 14.5321 55.0404 -8.90857 23.29 3.74373" fill="white"/>
<path d="M50.9527 56.9435C50.9527 56.9435 46.4848 54.0529 35.8221 57.0383C25.1595 60.0237 15.7009 53.6738 15.7009 53.6738C15.7009 53.6738 7.77915 83.5118 45.8035 80.8265C45.8035 80.8265 41.3199 67.7793 51.0002 56.9435" fill="white"/>
<path d="M17.6658 73.8135C17.6658 73.8135 6.32191 60.861 19.6938 41.622C19.6938 41.622 17.1113 29.6331 2.56701 26.1738C2.56701 26.1738 -9.18889 52.7421 17.6817 73.8135" fill="white"/>
<path d="M50.1131 23.4877C50.1131 23.4877 49.7962 28.7635 57.7179 36.5033C65.6397 44.2432 64.8951 55.616 64.8951 55.616C64.8951 55.616 94.76 47.4971 73.4505 16.127C70.4992 19.2211 66.8158 21.5266 62.7382 22.832C58.6605 24.1375 54.3194 24.4009 50.1131 23.5983" fill="white"/>
<path d="M81.4835 43.7871C81.4835 43.7871 75.9066 60.0566 52.5216 58.1611C52.5216 58.1611 43.3957 66.3591 47.6735 80.6541C47.6735 80.6541 76.6196 77.495 81.4835 43.7871Z" fill="white"/>
</g>
</g>
<defs>
<clipPath id="clip0_9_79">
<rect width="179" height="81" fill="white"/>
</clipPath>
</defs>
</svg>
