<svg width="28" height="20" viewBox="0 0 28 20" fill="none" xmlns="http://www.w3.org/2000/svg">
<path opacity="0.75" fill-rule="evenodd" clip-rule="evenodd" d="M2.68742 6.1649C3.04164 6.39207 4.10929 7.06697 5.89055 8.18906C7.67181 9.31116 9.03633 10.1752 9.9843 10.7811C10.0884 10.8475 10.3098 10.9919 10.6482 11.2143C10.9867 11.437 11.2681 11.6171 11.4919 11.7543C11.7159 11.8915 11.9867 12.0454 12.3045 12.2158C12.6222 12.3861 12.9218 12.5141 13.203 12.599C13.4843 12.6844 13.7447 12.7268 13.9843 12.7268H14H14.0157C14.2553 12.7268 14.5157 12.6844 14.797 12.599C15.0782 12.5141 15.3779 12.3859 15.6955 12.2158C16.0131 12.0453 16.2839 11.8915 16.5079 11.7543C16.7319 11.6171 17.0131 11.437 17.3516 11.2143C17.6901 10.9917 17.9116 10.8475 18.0157 10.7811C18.9738 10.175 21.4116 8.63626 25.3281 6.16455C26.0885 5.68178 26.7237 5.09929 27.2342 4.41742C27.7449 3.7359 28 3.0209 28 2.27278C28 1.64775 27.7524 1.11268 27.2576 0.667573C26.7628 0.222466 26.1767 0 25.4999 0H2.49986C1.69784 0 1.08069 0.246178 0.648411 0.738533C0.216137 1.23106 0 1.84668 0 2.58521C0 3.18183 0.286521 3.8283 0.85937 4.5243C1.43222 5.22029 2.0417 5.76721 2.68742 6.1649ZM26.4374 7.68468C23.021 9.78677 20.427 11.4204 18.6564 12.5852C18.0627 12.9829 17.5809 13.2932 17.211 13.5155C16.8412 13.7382 16.3491 13.9653 15.7345 14.1974C15.12 14.4295 14.5471 14.5454 14.0159 14.5454H14H13.9843C13.453 14.5454 12.88 14.4295 12.2655 14.1974C11.6511 13.9653 11.1588 13.7382 10.789 13.5155C10.4193 13.2932 9.93751 12.9829 9.34375 12.5852C7.93742 11.6477 5.34896 10.0141 1.57816 7.68468C0.984411 7.325 0.458356 6.91284 0 6.44891V17.727C0 18.3523 0.244713 18.8871 0.734329 19.3323C1.22395 19.7775 1.81252 20 2.50005 20H25.5001C26.1875 20 26.7761 19.7775 27.2657 19.3323C27.7555 18.887 28 18.3523 28 17.727V6.44891C27.552 6.90325 27.0313 7.31541 26.4374 7.68468Z" fill="#6CACE4"/>
</svg>
