<svg width="122" height="46" viewBox="0 0 122 46" fill="none" xmlns="http://www.w3.org/2000/svg">
<path d="M17.24 40.54H13.87V24.83H19.28C23.28 24.83 25.72 26.47 25.72 30.08C25.72 33.69 23.16 35.63 19 35.63H17.24V40.54ZM17.17 32.66H19C21 32.66 22.23 31.88 22.23 30.22C22.23 28.56 21.1 27.8 19 27.8H17.17V32.66Z" fill="#1A1A1A"/>
<path d="M28.17 32.69C28.17 27.41 31.38 24.56 35.71 24.56C40.56 24.56 43.37 27.64 43.37 32.69C43.37 38.28 40.11 40.81 35.8 40.81C31.25 40.81 28.17 38 28.17 32.69ZM39.8 32.69C39.8 29.12 38.16 27.53 35.71 27.53C33.49 27.53 31.71 29.19 31.71 32.69C31.71 36.19 33.53 37.85 35.89 37.85C38.25 37.85 39.8 36.21 39.8 32.69Z" fill="#1A1A1A"/>
<path d="M58.35 39.91C57.0379 40.5806 55.5713 40.8912 54.1 40.81C49.3 40.81 46.1 38.05 46.1 32.89C46.1 27.48 49.26 24.56 54.4 24.56C55.7701 24.5283 57.1319 24.7802 58.4 25.3L57.66 28.13C56.7743 27.8412 55.8513 27.6829 54.92 27.66C51.82 27.66 49.71 29.21 49.71 32.66C49.71 35.98 51.71 37.66 54.9 37.66C55.8553 37.6292 56.7971 37.4259 57.68 37.06L58.35 39.91Z" fill="#1A1A1A"/>
<path d="M70.67 36.35H64L62.48 40.54H60.48L66.48 24.83H68.48L74.36 40.54H72.25L70.67 36.35ZM64.61 34.51H70L67.38 27.12H67.29L64.61 34.51Z" fill="#1A1A1A"/>
<path d="M81.3 40.54H79.3V26.72H74.65V24.83H85.96V26.72H81.3V40.54Z" fill="#1A1A1A"/>
<path d="M88.08 32.69C88.08 27.69 90.98 24.61 95.08 24.61C99.75 24.61 102.26 27.93 102.26 32.69C102.26 38.03 99.26 40.77 95.15 40.77C90.84 40.77 88.08 37.67 88.08 32.69ZM100.16 32.69C100.16 28.38 98.23 26.49 95.16 26.49C92.4 26.49 90.27 28.49 90.27 32.69C90.27 36.89 92.33 38.88 95.43 38.88C98.34 38.88 100.16 36.75 100.16 32.69Z" fill="#1A1A1A"/>
<path d="M121.82 40.54H119.82L118.82 28.27L114.82 40.54H112.71L108.77 28.31L107.77 40.54H105.77L107.11 24.83H109.58L113.82 38.34L118 24.83H120.47L121.82 40.54Z" fill="#1A1A1A"/>
<path d="M48.5284 19.1989V17.5511H49.4375C49.7879 17.5511 50.0814 17.4825 50.3182 17.3452C50.5597 17.2079 50.7585 17.0303 50.9148 16.8125C51.0758 16.5947 51.2083 16.3674 51.3125 16.1307L51.5398 15.5909L46.5114 4.45455H48.4148L52.4205 13.4886L56.0852 4.45455H57.9602L52.9318 16.642C52.733 17.0966 52.5057 17.518 52.25 17.9062C51.9991 18.2945 51.6558 18.607 51.2202 18.8438C50.7893 19.0805 50.2045 19.1989 49.4659 19.1989H48.5284Z" fill="#1A1A1A"/>
<path d="M62.358 19H60.5114L65.8523 4.45455H67.6705L73.0114 19H71.1648L66.8182 6.75568H66.7045L62.358 19ZM63.0398 13.3182H70.483V14.8807H63.0398V13.3182Z" fill="#1A1A1A"/>
<path d="M80.4205 19.1989C79.483 19.1989 78.6473 19.0379 77.9134 18.7159C77.1842 18.3939 76.6042 17.9465 76.1733 17.3736C75.7472 16.7959 75.5152 16.1259 75.4773 15.3636H77.267C77.3049 15.8324 77.4659 16.2372 77.75 16.5781C78.0341 16.9143 78.4058 17.1747 78.8651 17.3594C79.3243 17.544 79.8333 17.6364 80.392 17.6364C81.017 17.6364 81.571 17.5275 82.054 17.3097C82.5369 17.0919 82.9157 16.7888 83.1903 16.4006C83.465 16.0123 83.6023 15.5625 83.6023 15.0511C83.6023 14.5161 83.4697 14.045 83.2045 13.6378C82.9394 13.2259 82.5511 12.9039 82.0398 12.6719C81.5284 12.4399 80.9034 12.3239 80.1648 12.3239H79V10.7614H80.1648C80.7424 10.7614 81.2491 10.6572 81.6847 10.4489C82.125 10.2405 82.4683 9.94697 82.7145 9.56818C82.9654 9.18939 83.0909 8.74432 83.0909 8.23295C83.0909 7.74053 82.982 7.31203 82.7642 6.94744C82.5464 6.58286 82.2386 6.29877 81.8409 6.09517C81.4479 5.89157 80.9839 5.78977 80.4489 5.78977C79.947 5.78977 79.4735 5.8821 79.0284 6.06676C78.5881 6.24669 78.2282 6.50947 77.9489 6.85511C77.6695 7.19602 77.518 7.60795 77.4943 8.09091H75.7898C75.8182 7.3286 76.0478 6.66098 76.4787 6.08807C76.9096 5.51042 77.473 5.06061 78.169 4.73864C78.8698 4.41667 79.6392 4.25568 80.4773 4.25568C81.3769 4.25568 82.1487 4.43797 82.7926 4.80256C83.4366 5.1624 83.9313 5.63826 84.277 6.23011C84.6226 6.82197 84.7955 7.46117 84.7955 8.14773C84.7955 8.96686 84.58 9.66525 84.1491 10.2429C83.723 10.8205 83.143 11.2206 82.4091 11.4432V11.5568C83.3277 11.7083 84.045 12.099 84.5611 12.7287C85.0772 13.3537 85.3352 14.1278 85.3352 15.0511C85.3352 15.8419 85.1198 16.5521 84.6889 17.1818C84.2628 17.8068 83.6804 18.2992 82.9418 18.6591C82.2031 19.0189 81.3627 19.1989 80.4205 19.1989Z" fill="#1A1A1A"/>
</svg>
