<svg width="137" height="74" viewBox="0 0 137 74" fill="none" xmlns="http://www.w3.org/2000/svg">
<g filter="url(#filter0_d_0_1)">
<rect x="4" y="40" width="129" height="26" rx="2" fill="#ECD6B9"/>
</g>
<g filter="url(#filter1_d_0_1)">
<path d="M8.05682 57V48.2727H9.11364V52.1591H13.767V48.2727H14.8239V57H13.767V53.0966H9.11364V57H8.05682ZM19.4624 57.1364C18.8714 57.1364 18.353 56.9957 17.907 56.7145C17.4638 56.4332 17.1172 56.0398 16.8672 55.5341C16.62 55.0284 16.4964 54.4375 16.4964 53.7614C16.4964 53.0795 16.62 52.4844 16.8672 51.9759C17.1172 51.4673 17.4638 51.0724 17.907 50.7912C18.353 50.5099 18.8714 50.3693 19.4624 50.3693C20.0533 50.3693 20.5703 50.5099 21.0135 50.7912C21.4595 51.0724 21.8061 51.4673 22.0533 51.9759C22.3033 52.4844 22.4283 53.0795 22.4283 53.7614C22.4283 54.4375 22.3033 55.0284 22.0533 55.5341C21.8061 56.0398 21.4595 56.4332 21.0135 56.7145C20.5703 56.9957 20.0533 57.1364 19.4624 57.1364ZM19.4624 56.233C19.9112 56.233 20.2805 56.1179 20.5703 55.8878C20.8601 55.6577 21.0746 55.3551 21.2138 54.9801C21.353 54.6051 21.4226 54.1989 21.4226 53.7614C21.4226 53.3239 21.353 52.9162 21.2138 52.5384C21.0746 52.1605 20.8601 51.8551 20.5703 51.6222C20.2805 51.3892 19.9112 51.2727 19.4624 51.2727C19.0135 51.2727 18.6442 51.3892 18.3544 51.6222C18.0646 51.8551 17.8501 52.1605 17.7109 52.5384C17.5717 52.9162 17.5021 53.3239 17.5021 53.7614C17.5021 54.1989 17.5717 54.6051 17.7109 54.9801C17.8501 55.3551 18.0646 55.6577 18.3544 55.8878C18.6442 56.1179 19.0135 56.233 19.4624 56.233ZM23.9634 57V50.4545H26.6396C27.3441 50.4545 27.9038 50.6136 28.3185 50.9318C28.7333 51.25 28.9407 51.6705 28.9407 52.1932C28.9407 52.5909 28.8228 52.8991 28.587 53.1179C28.3512 53.3338 28.0487 53.4801 27.6793 53.5568C27.9208 53.5909 28.1552 53.6761 28.3825 53.8125C28.6126 53.9489 28.8029 54.1364 28.9535 54.375C29.104 54.6108 29.1793 54.9006 29.1793 55.2443C29.1793 55.5795 29.0941 55.8793 28.9237 56.1435C28.7532 56.4077 28.5089 56.6165 28.1907 56.7699C27.8725 56.9233 27.4918 57 27.0487 57H23.9634ZM24.918 56.0795H27.0487C27.3952 56.0795 27.6665 55.9972 27.8626 55.8324C28.0586 55.6676 28.1566 55.4432 28.1566 55.1591C28.1566 54.821 28.0586 54.5554 27.8626 54.3622C27.6665 54.1662 27.3952 54.0682 27.0487 54.0682H24.918V56.0795ZM24.918 53.1989H26.6396C26.9094 53.1989 27.141 53.1619 27.3342 53.0881C27.5273 53.0114 27.6751 52.9034 27.7773 52.7642C27.8825 52.6222 27.935 52.4545 27.935 52.2614C27.935 51.9858 27.82 51.7699 27.5898 51.6136C27.3597 51.4545 27.043 51.375 26.6396 51.375H24.918V53.1989ZM33.3608 57.1364C32.7699 57.1364 32.2514 56.9957 31.8054 56.7145C31.3622 56.4332 31.0156 56.0398 30.7656 55.5341C30.5185 55.0284 30.3949 54.4375 30.3949 53.7614C30.3949 53.0795 30.5185 52.4844 30.7656 51.9759C31.0156 51.4673 31.3622 51.0724 31.8054 50.7912C32.2514 50.5099 32.7699 50.3693 33.3608 50.3693C33.9517 50.3693 34.4688 50.5099 34.9119 50.7912C35.358 51.0724 35.7045 51.4673 35.9517 51.9759C36.2017 52.4844 36.3267 53.0795 36.3267 53.7614C36.3267 54.4375 36.2017 55.0284 35.9517 55.5341C35.7045 56.0398 35.358 56.4332 34.9119 56.7145C34.4688 56.9957 33.9517 57.1364 33.3608 57.1364ZM33.3608 56.233C33.8097 56.233 34.179 56.1179 34.4688 55.8878C34.7585 55.6577 34.973 55.3551 35.1122 54.9801C35.2514 54.6051 35.321 54.1989 35.321 53.7614C35.321 53.3239 35.2514 52.9162 35.1122 52.5384C34.973 52.1605 34.7585 51.8551 34.4688 51.6222C34.179 51.3892 33.8097 51.2727 33.3608 51.2727C32.9119 51.2727 32.5426 51.3892 32.2528 51.6222C31.9631 51.8551 31.7486 52.1605 31.6094 52.5384C31.4702 52.9162 31.4006 53.3239 31.4006 53.7614C31.4006 54.1989 31.4702 54.6051 31.6094 54.9801C31.7486 55.3551 31.9631 55.6577 32.2528 55.8878C32.5426 56.1179 32.9119 56.233 33.3608 56.233ZM40.521 57.1364C39.9073 57.1364 39.3789 56.9915 38.9357 56.7017C38.4925 56.4119 38.1516 56.0128 37.913 55.5043C37.6744 54.9957 37.555 54.4148 37.555 53.7614C37.555 53.0966 37.6772 52.5099 37.9215 52.0014C38.1687 51.4901 38.5124 51.0909 38.9528 50.804C39.396 50.5142 39.913 50.3693 40.5039 50.3693C40.9641 50.3693 41.3789 50.4545 41.7482 50.625C42.1175 50.7955 42.4201 51.0341 42.6559 51.3409C42.8917 51.6477 43.038 52.0057 43.0948 52.4148H42.0891C42.0124 52.1165 41.842 51.8523 41.5778 51.6222C41.3164 51.3892 40.9641 51.2727 40.521 51.2727C40.1289 51.2727 39.7852 51.375 39.4897 51.5795C39.1971 51.7812 38.9684 52.0668 38.8036 52.4361C38.6417 52.8026 38.5607 53.233 38.5607 53.7273C38.5607 54.233 38.6403 54.6733 38.7994 55.0483C38.9613 55.4233 39.1886 55.7145 39.4812 55.9219C39.7766 56.1293 40.1232 56.233 40.521 56.233C40.7823 56.233 41.0195 56.1875 41.2326 56.0966C41.4457 56.0057 41.6261 55.875 41.7738 55.7045C41.9215 55.5341 42.0266 55.3295 42.0891 55.0909H43.0948C43.038 55.4773 42.8974 55.8253 42.6729 56.1349C42.4513 56.4418 42.1573 56.6861 41.7908 56.8679C41.4272 57.0469 41.0039 57.1364 40.521 57.1364ZM44.0494 51.392V50.4545H49.3675V51.392H47.2198V57H46.2141V51.392H44.0494ZM51.8402 55.517L54.9936 50.4545H56.1527V57H55.147V51.9375L52.0107 57H50.8345V50.4545H51.8402V55.517ZM65.7504 53.267V54.2045H62.1367V53.267H65.7504ZM62.3754 50.4545V57H61.3697V50.4545H62.3754ZM66.5174 50.4545V57H65.5117V50.4545H66.5174ZM70.2802 57.1534C69.8654 57.1534 69.489 57.0753 69.1509 56.919C68.8129 56.7599 68.5444 56.5312 68.3455 56.233C68.1467 55.9318 68.0472 55.5682 68.0472 55.142C68.0472 54.767 68.1211 54.4631 68.2688 54.2301C68.4165 53.9943 68.614 53.8097 68.8612 53.6761C69.1083 53.5426 69.381 53.4432 69.6793 53.3778C69.9805 53.3097 70.283 53.2557 70.587 53.2159C70.9847 53.1648 71.3072 53.1264 71.5543 53.1009C71.8043 53.0724 71.9862 53.0256 72.0998 52.9602C72.2163 52.8949 72.2745 52.7812 72.2745 52.6193V52.5852C72.2745 52.1648 72.1594 51.8381 71.9293 51.6051C71.7021 51.3722 71.3569 51.2557 70.8938 51.2557C70.4137 51.2557 70.0373 51.3608 69.7646 51.571C69.4918 51.7812 69.3001 52.0057 69.1893 52.2443L68.2347 51.9034C68.4052 51.5057 68.6325 51.196 68.9165 50.9744C69.2035 50.75 69.516 50.5937 69.854 50.5057C70.195 50.4148 70.5302 50.3693 70.8597 50.3693C71.07 50.3693 71.3114 50.3949 71.5842 50.446C71.8597 50.4943 72.1254 50.5952 72.381 50.7486C72.6396 50.902 72.854 51.1335 73.0245 51.4432C73.195 51.7528 73.2802 52.1676 73.2802 52.6875V57H72.2745V56.1136H72.2234C72.1552 56.2557 72.0415 56.4077 71.8825 56.5696C71.7234 56.7315 71.5117 56.8693 71.2475 56.983C70.9833 57.0966 70.6609 57.1534 70.2802 57.1534ZM70.4336 56.25C70.8313 56.25 71.1665 56.1719 71.4393 56.0156C71.7148 55.8594 71.9222 55.6577 72.0614 55.4105C72.2035 55.1634 72.2745 54.9034 72.2745 54.6307V53.7102C72.2319 53.7614 72.1381 53.8082 71.9933 53.8509C71.8512 53.8906 71.6864 53.9261 71.4989 53.9574C71.3143 53.9858 71.1339 54.0114 70.9577 54.0341C70.7844 54.054 70.6438 54.071 70.5359 54.0852C70.2745 54.1193 70.0302 54.1747 69.8029 54.2514C69.5785 54.3253 69.3967 54.4375 69.2575 54.5881C69.1211 54.7358 69.0529 54.9375 69.0529 55.1932C69.0529 55.5426 69.1822 55.8068 69.4407 55.9858C69.7021 56.1619 70.033 56.25 70.4336 56.25ZM78.4908 57V50.4545H83.6385V57H82.6328V51.392H79.4964V57H78.4908ZM88.1342 57.1364C87.5433 57.1364 87.0249 56.9957 86.5788 56.7145C86.1357 56.4332 85.7891 56.0398 85.5391 55.5341C85.2919 55.0284 85.1683 54.4375 85.1683 53.7614C85.1683 53.0795 85.2919 52.4844 85.5391 51.9759C85.7891 51.4673 86.1357 51.0724 86.5788 50.7912C87.0249 50.5099 87.5433 50.3693 88.1342 50.3693C88.7251 50.3693 89.2422 50.5099 89.6854 50.7912C90.1314 51.0724 90.478 51.4673 90.7251 51.9759C90.9751 52.4844 91.1001 53.0795 91.1001 53.7614C91.1001 54.4375 90.9751 55.0284 90.7251 55.5341C90.478 56.0398 90.1314 56.4332 89.6854 56.7145C89.2422 56.9957 88.7251 57.1364 88.1342 57.1364ZM88.1342 56.233C88.5831 56.233 88.9524 56.1179 89.2422 55.8878C89.532 55.6577 89.7464 55.3551 89.8857 54.9801C90.0249 54.6051 90.0945 54.1989 90.0945 53.7614C90.0945 53.3239 90.0249 52.9162 89.8857 52.5384C89.7464 52.1605 89.532 51.8551 89.2422 51.6222C88.9524 51.3892 88.5831 51.2727 88.1342 51.2727C87.6854 51.2727 87.3161 51.3892 87.0263 51.6222C86.7365 51.8551 86.522 52.1605 86.3828 52.5384C86.2436 52.9162 86.174 53.3239 86.174 53.7614C86.174 54.1989 86.2436 54.6051 86.3828 54.9801C86.522 55.3551 86.7365 55.6577 87.0263 55.8878C87.3161 56.1179 87.6854 56.233 88.1342 56.233ZM91.9364 58.875V56.0625H92.4819C92.6154 55.9233 92.7305 55.7727 92.8271 55.6108C92.9237 55.4489 93.0075 55.2571 93.0785 55.0355C93.1523 54.8111 93.2148 54.5384 93.266 54.2173C93.3171 53.8935 93.3626 53.5028 93.4023 53.0455L93.6239 50.4545H97.783V56.0625H98.7887V58.875H97.783V57H92.9421V58.875H91.9364ZM93.6239 56.0625H96.7773V51.392H94.5614L94.391 53.0455C94.32 53.7301 94.2319 54.3281 94.1268 54.8395C94.0217 55.3509 93.854 55.7585 93.6239 56.0625ZM100.874 50.4545L102.442 53.1307L104.01 50.4545H105.169L103.055 53.7273L105.169 57H104.01L102.442 54.4602L100.874 57H99.7145L101.794 53.7273L99.7145 50.4545H100.874ZM108.994 57.1364C108.403 57.1364 107.884 56.9957 107.438 56.7145C106.995 56.4332 106.648 56.0398 106.398 55.5341C106.151 55.0284 106.028 54.4375 106.028 53.7614C106.028 53.0795 106.151 52.4844 106.398 51.9759C106.648 51.4673 106.995 51.0724 107.438 50.7912C107.884 50.5099 108.403 50.3693 108.994 50.3693C109.585 50.3693 110.102 50.5099 110.545 50.7912C110.991 51.0724 111.337 51.4673 111.585 51.9759C111.835 52.4844 111.96 53.0795 111.96 53.7614C111.96 54.4375 111.835 55.0284 111.585 55.5341C111.337 56.0398 110.991 56.4332 110.545 56.7145C110.102 56.9957 109.585 57.1364 108.994 57.1364ZM108.994 56.233C109.442 56.233 109.812 56.1179 110.102 55.8878C110.391 55.6577 110.606 55.3551 110.745 54.9801C110.884 54.6051 110.954 54.1989 110.954 53.7614C110.954 53.3239 110.884 52.9162 110.745 52.5384C110.606 52.1605 110.391 51.8551 110.102 51.6222C109.812 51.3892 109.442 51.2727 108.994 51.2727C108.545 51.2727 108.175 51.3892 107.886 51.6222C107.596 51.8551 107.381 52.1605 107.242 52.5384C107.103 52.9162 107.033 53.3239 107.033 53.7614C107.033 54.1989 107.103 54.6051 107.242 54.9801C107.381 55.3551 107.596 55.6577 107.886 55.8878C108.175 56.1179 108.545 56.233 108.994 56.233ZM112.796 58.875V56.0625H113.341C113.475 55.9233 113.59 55.7727 113.686 55.6108C113.783 55.4489 113.867 55.2571 113.938 55.0355C114.012 54.8111 114.074 54.5384 114.125 54.2173C114.176 53.8935 114.222 53.5028 114.262 53.0455L114.483 50.4545H118.642V56.0625H119.648V58.875H118.642V57H113.801V58.875H112.796ZM114.483 56.0625H117.637V51.392H115.421L115.25 53.0455C115.179 53.7301 115.091 54.3281 114.986 54.8395C114.881 55.3509 114.713 55.7585 114.483 56.0625ZM123.727 57.1364C123.097 57.1364 122.553 56.9972 122.095 56.7188C121.641 56.4375 121.29 56.0455 121.043 55.5426C120.798 55.0369 120.676 54.4489 120.676 53.7784C120.676 53.108 120.798 52.517 121.043 52.0057C121.29 51.4915 121.634 51.0909 122.074 50.804C122.517 50.5142 123.034 50.3693 123.625 50.3693C123.966 50.3693 124.303 50.4261 124.635 50.5398C124.967 50.6534 125.27 50.8381 125.543 51.0938C125.815 51.3466 126.033 51.6818 126.195 52.0994C126.357 52.517 126.438 53.0312 126.438 53.642V54.0682H121.392V53.1989H125.415C125.415 52.8295 125.341 52.5 125.193 52.2102C125.048 51.9205 124.841 51.6918 124.571 51.5241C124.304 51.3565 123.989 51.2727 123.625 51.2727C123.224 51.2727 122.878 51.3722 122.585 51.571C122.295 51.767 122.072 52.0227 121.916 52.3381C121.76 52.6534 121.682 52.9915 121.682 53.3523V53.9318C121.682 54.4261 121.767 54.8452 121.938 55.1889C122.111 55.5298 122.351 55.7898 122.658 55.9688C122.964 56.1449 123.321 56.233 123.727 56.233C123.991 56.233 124.23 56.196 124.443 56.1222C124.659 56.0455 124.845 55.9318 125.001 55.7812C125.158 55.6278 125.278 55.4375 125.364 55.2102L126.335 55.483C126.233 55.8125 126.061 56.1023 125.82 56.3523C125.578 56.5994 125.28 56.7926 124.925 56.9318C124.57 57.0682 124.17 57.1364 123.727 57.1364ZM129.297 48.2727L129.212 54.5455H128.223L128.138 48.2727H129.297ZM128.717 57.0682C128.507 57.0682 128.327 56.9929 128.176 56.8423C128.026 56.6918 127.95 56.5114 127.95 56.3011C127.95 56.0909 128.026 55.9105 128.176 55.7599C128.327 55.6094 128.507 55.5341 128.717 55.5341C128.928 55.5341 129.108 55.6094 129.259 55.7599C129.409 55.9105 129.484 56.0909 129.484 56.3011C129.484 56.4403 129.449 56.5682 129.378 56.6847C129.31 56.8011 129.217 56.8949 129.101 56.9659C128.987 57.0341 128.859 57.0682 128.717 57.0682Z" fill="black"/>
</g>
<path d="M41.5 42.5L54.75 22.5L68 2.5L94.5 42.5" stroke="#A6722D"/>
<g filter="url(#filter2_d_0_1)">
<circle cx="68" cy="2.5" r="2.5" fill="black"/>
</g>
<circle cx="1.5" cy="1.5" r="1.5" transform="matrix(1 0 0 -1 40 44)" fill="#D9D9D9"/>
<circle cx="1.5" cy="1.5" r="1.5" transform="matrix(1 0 0 -1 93 44)" fill="#D9D9D9"/>
<defs>
<filter id="filter0_d_0_1" x="0" y="40" width="137" height="34" filterUnits="userSpaceOnUse" color-interpolation-filters="sRGB">
<feFlood flood-opacity="0" result="BackgroundImageFix"/>
<feColorMatrix in="SourceAlpha" type="matrix" values="0 0 0 0 0 0 0 0 0 0 0 0 0 0 0 0 0 0 127 0" result="hardAlpha"/>
<feOffset dy="4"/>
<feGaussianBlur stdDeviation="2"/>
<feComposite in2="hardAlpha" operator="out"/>
<feColorMatrix type="matrix" values="0 0 0 0 0 0 0 0 0 0 0 0 0 0 0 0 0 0 0.25 0"/>
<feBlend mode="normal" in2="BackgroundImageFix" result="effect1_dropShadow_0_1"/>
<feBlend mode="normal" in="SourceGraphic" in2="effect1_dropShadow_0_1" result="shape"/>
</filter>
<filter id="filter1_d_0_1" x="4.05682" y="48.2727" width="129.428" height="18.6023" filterUnits="userSpaceOnUse" color-interpolation-filters="sRGB">
<feFlood flood-opacity="0" result="BackgroundImageFix"/>
<feColorMatrix in="SourceAlpha" type="matrix" values="0 0 0 0 0 0 0 0 0 0 0 0 0 0 0 0 0 0 127 0" result="hardAlpha"/>
<feOffset dy="4"/>
<feGaussianBlur stdDeviation="2"/>
<feComposite in2="hardAlpha" operator="out"/>
<feColorMatrix type="matrix" values="0 0 0 0 0 0 0 0 0 0 0 0 0 0 0 0 0 0 0.25 0"/>
<feBlend mode="normal" in2="BackgroundImageFix" result="effect1_dropShadow_0_1"/>
<feBlend mode="normal" in="SourceGraphic" in2="effect1_dropShadow_0_1" result="shape"/>
</filter>
<filter id="filter2_d_0_1" x="61.5" y="0" width="13" height="13" filterUnits="userSpaceOnUse" color-interpolation-filters="sRGB">
<feFlood flood-opacity="0" result="BackgroundImageFix"/>
<feColorMatrix in="SourceAlpha" type="matrix" values="0 0 0 0 0 0 0 0 0 0 0 0 0 0 0 0 0 0 127 0" result="hardAlpha"/>
<feOffset dy="4"/>
<feGaussianBlur stdDeviation="2"/>
<feComposite in2="hardAlpha" operator="out"/>
<feColorMatrix type="matrix" values="0 0 0 0 0 0 0 0 0 0 0 0 0 0 0 0 0 0 0.25 0"/>
<feBlend mode="normal" in2="BackgroundImageFix" result="effect1_dropShadow_0_1"/>
<feBlend mode="normal" in="SourceGraphic" in2="effect1_dropShadow_0_1" result="shape"/>
</filter>
</defs>
</svg>
