<svg width="143" height="74" viewBox="0 0 143 74" fill="none" xmlns="http://www.w3.org/2000/svg">
<g filter="url(#filter0_d_0_1)">
<rect x="4" y="40" width="135" height="26" rx="2" fill="#ECD6B9"/>
</g>
<g filter="url(#filter1_d_0_1)">
<path d="M8.05682 57V48.2727H11.108C11.7159 48.2727 12.2173 48.3778 12.6122 48.5881C13.0071 48.7955 13.3011 49.0753 13.4943 49.4276C13.6875 49.777 13.7841 50.1648 13.7841 50.5909C13.7841 50.9659 13.7173 51.2756 13.5838 51.5199C13.4531 51.7642 13.2798 51.9574 13.0639 52.0994C12.8509 52.2415 12.6193 52.3466 12.3693 52.4148V52.5C12.6364 52.517 12.9048 52.6108 13.1747 52.7812C13.4446 52.9517 13.6705 53.196 13.8523 53.5142C14.0341 53.8324 14.125 54.2216 14.125 54.6818C14.125 55.1193 14.0256 55.5128 13.8267 55.8622C13.6278 56.2116 13.3139 56.4886 12.8849 56.6932C12.456 56.8977 11.8977 57 11.2102 57H8.05682ZM9.11364 56.0625H11.2102C11.9006 56.0625 12.3906 55.929 12.6804 55.6619C12.973 55.392 13.1193 55.0653 13.1193 54.6818C13.1193 54.3864 13.044 54.1136 12.8935 53.8636C12.7429 53.6108 12.5284 53.4091 12.25 53.2585C11.9716 53.1051 11.642 53.0284 11.2614 53.0284H9.11364V56.0625ZM9.11364 52.108H11.0739C11.392 52.108 11.679 52.0455 11.9347 51.9205C12.1932 51.7955 12.3977 51.6193 12.5483 51.392C12.7017 51.1648 12.7784 50.8977 12.7784 50.5909C12.7784 50.2074 12.6449 49.8821 12.3778 49.6151C12.1108 49.3452 11.6875 49.2102 11.108 49.2102H9.11364V52.108ZM17.6513 57.1534C17.2365 57.1534 16.8601 57.0753 16.522 56.919C16.1839 56.7599 15.9155 56.5312 15.7166 56.233C15.5178 55.9318 15.4183 55.5682 15.4183 55.142C15.4183 54.767 15.4922 54.4631 15.6399 54.2301C15.7876 53.9943 15.9851 53.8097 16.2322 53.6761C16.4794 53.5426 16.7521 53.4432 17.0504 53.3778C17.3516 53.3097 17.6541 53.2557 17.9581 53.2159C18.3558 53.1648 18.6783 53.1264 18.9254 53.1009C19.1754 53.0724 19.3572 53.0256 19.4709 52.9602C19.5874 52.8949 19.6456 52.7812 19.6456 52.6193V52.5852C19.6456 52.1648 19.5305 51.8381 19.3004 51.6051C19.0732 51.3722 18.728 51.2557 18.2649 51.2557C17.7848 51.2557 17.4084 51.3608 17.1357 51.571C16.8629 51.7812 16.6712 52.0057 16.5604 52.2443L15.6058 51.9034C15.7763 51.5057 16.0036 51.196 16.2876 50.9744C16.5746 50.75 16.8871 50.5937 17.2251 50.5057C17.5661 50.4148 17.9013 50.3693 18.2308 50.3693C18.4411 50.3693 18.6825 50.3949 18.9553 50.446C19.2308 50.4943 19.4964 50.5952 19.7521 50.7486C20.0107 50.902 20.2251 51.1335 20.3956 51.4432C20.5661 51.7528 20.6513 52.1676 20.6513 52.6875V57H19.6456V56.1136H19.5945C19.5263 56.2557 19.4126 56.4077 19.2536 56.5696C19.0945 56.7315 18.8828 56.8693 18.6186 56.983C18.3544 57.0966 18.032 57.1534 17.6513 57.1534ZM17.8047 56.25C18.2024 56.25 18.5376 56.1719 18.8104 56.0156C19.0859 55.8594 19.2933 55.6577 19.4325 55.4105C19.5746 55.1634 19.6456 54.9034 19.6456 54.6307V53.7102C19.603 53.7614 19.5092 53.8082 19.3643 53.8509C19.2223 53.8906 19.0575 53.9261 18.87 53.9574C18.6854 53.9858 18.505 54.0114 18.3288 54.0341C18.1555 54.054 18.0149 54.071 17.907 54.0852C17.6456 54.1193 17.4013 54.1747 17.174 54.2514C16.9496 54.3253 16.7678 54.4375 16.6286 54.5881C16.4922 54.7358 16.424 54.9375 16.424 55.1932C16.424 55.5426 16.5533 55.8068 16.8118 55.9858C17.0732 56.1619 17.4041 56.25 17.8047 56.25ZM22.4869 57V50.4545H23.4925V53.3011H24.1573L26.5096 50.4545H27.805L25.163 53.608L27.8391 57H26.5437L24.396 54.2386H23.4925V57H22.4869ZM30.8583 57.1534C30.4435 57.1534 30.0671 57.0753 29.729 56.919C29.391 56.7599 29.1225 56.5312 28.9237 56.233C28.7248 55.9318 28.6254 55.5682 28.6254 55.142C28.6254 54.767 28.6992 54.4631 28.8469 54.2301C28.9947 53.9943 29.1921 53.8097 29.4393 53.6761C29.6864 53.5426 29.9592 53.4432 30.2575 53.3778C30.5586 53.3097 30.8612 53.2557 31.1651 53.2159C31.5629 53.1648 31.8853 53.1264 32.1325 53.1009C32.3825 53.0724 32.5643 53.0256 32.6779 52.9602C32.7944 52.8949 32.8526 52.7812 32.8526 52.6193V52.5852C32.8526 52.1648 32.7376 51.8381 32.5075 51.6051C32.2802 51.3722 31.935 51.2557 31.4719 51.2557C30.9918 51.2557 30.6154 51.3608 30.3427 51.571C30.07 51.7812 29.8782 52.0057 29.7674 52.2443L28.8129 51.9034C28.9833 51.5057 29.2106 51.196 29.4947 50.9744C29.7816 50.75 30.0941 50.5937 30.4322 50.5057C30.7731 50.4148 31.1083 50.3693 31.4379 50.3693C31.6481 50.3693 31.8896 50.3949 32.1623 50.446C32.4379 50.4943 32.7035 50.5952 32.9592 50.7486C33.2177 50.902 33.4322 51.1335 33.6026 51.4432C33.7731 51.7528 33.8583 52.1676 33.8583 52.6875V57H32.8526V56.1136H32.8015C32.7333 56.2557 32.6197 56.4077 32.4606 56.5696C32.3015 56.7315 32.0898 56.8693 31.8256 56.983C31.5614 57.0966 31.239 57.1534 30.8583 57.1534ZM31.0117 56.25C31.4094 56.25 31.7447 56.1719 32.0174 56.0156C32.293 55.8594 32.5004 55.6577 32.6396 55.4105C32.7816 55.1634 32.8526 54.9034 32.8526 54.6307V53.7102C32.81 53.7614 32.7163 53.8082 32.5714 53.8509C32.4293 53.8906 32.2646 53.9261 32.0771 53.9574C31.8924 53.9858 31.712 54.0114 31.5359 54.0341C31.3626 54.054 31.2219 54.071 31.114 54.0852C30.8526 54.1193 30.6083 54.1747 30.381 54.2514C30.1566 54.3253 29.9748 54.4375 29.8356 54.5881C29.6992 54.7358 29.631 54.9375 29.631 55.1932C29.631 55.5426 29.7603 55.8068 30.0188 55.9858C30.2802 56.1619 30.6112 56.25 31.0117 56.25ZM40.0746 53.267V54.2045H36.4609V53.267H40.0746ZM36.6996 50.4545V57H35.6939V50.4545H36.6996ZM40.8416 50.4545V57H39.8359V50.4545H40.8416ZM45.3374 57.1364C44.7237 57.1364 44.1953 56.9915 43.7521 56.7017C43.3089 56.4119 42.968 56.0128 42.7294 55.5043C42.4908 54.9957 42.3714 54.4148 42.3714 53.7614C42.3714 53.0966 42.4936 52.5099 42.7379 52.0014C42.9851 51.4901 43.3288 51.0909 43.7692 50.804C44.2124 50.5142 44.7294 50.3693 45.3203 50.3693C45.7805 50.3693 46.1953 50.4545 46.5646 50.625C46.9339 50.7955 47.2365 51.0341 47.4723 51.3409C47.7081 51.6477 47.8544 52.0057 47.9112 52.4148H46.9055C46.8288 52.1165 46.6584 51.8523 46.3942 51.6222C46.1328 51.3892 45.7805 51.2727 45.3374 51.2727C44.9453 51.2727 44.6016 51.375 44.3061 51.5795C44.0135 51.7812 43.7848 52.0668 43.62 52.4361C43.4581 52.8026 43.3771 53.233 43.3771 53.7273C43.3771 54.233 43.4567 54.6733 43.6158 55.0483C43.7777 55.4233 44.005 55.7145 44.2976 55.9219C44.593 56.1293 44.9396 56.233 45.3374 56.233C45.5987 56.233 45.8359 56.1875 46.049 56.0966C46.2621 56.0057 46.4425 55.875 46.5902 55.7045C46.7379 55.5341 46.843 55.3295 46.9055 55.0909H47.9112C47.8544 55.4773 47.7138 55.8253 47.4893 56.1349C47.2678 56.4418 46.9737 56.6861 46.6072 56.8679C46.2436 57.0469 45.8203 57.1364 45.3374 57.1364ZM50.3871 55.517L53.5405 50.4545H54.6996V57H53.6939V51.9375L50.5575 57H49.3814V50.4545H50.3871V55.517ZM57.5472 55.517L60.7006 50.4545H61.8597V57H60.854V51.9375L57.7177 57H56.5415V50.4545H57.5472V55.517ZM71.4574 53.267V54.2045H67.8438V53.267H71.4574ZM68.0824 50.4545V57H67.0767V50.4545H68.0824ZM72.2244 50.4545V57H71.2188V50.4545H72.2244ZM75.9872 57.1534C75.5724 57.1534 75.196 57.0753 74.858 56.919C74.5199 56.7599 74.2514 56.5312 74.0526 56.233C73.8537 55.9318 73.7543 55.5682 73.7543 55.142C73.7543 54.767 73.8281 54.4631 73.9759 54.2301C74.1236 53.9943 74.321 53.8097 74.5682 53.6761C74.8153 53.5426 75.0881 53.4432 75.3864 53.3778C75.6875 53.3097 75.9901 53.2557 76.294 53.2159C76.6918 53.1648 77.0142 53.1264 77.2614 53.1009C77.5114 53.0724 77.6932 53.0256 77.8068 52.9602C77.9233 52.8949 77.9815 52.7812 77.9815 52.6193V52.5852C77.9815 52.1648 77.8665 51.8381 77.6364 51.6051C77.4091 51.3722 77.0639 51.2557 76.6009 51.2557C76.1207 51.2557 75.7443 51.3608 75.4716 51.571C75.1989 51.7812 75.0071 52.0057 74.8963 52.2443L73.9418 51.9034C74.1122 51.5057 74.3395 51.196 74.6236 50.9744C74.9105 50.75 75.223 50.5937 75.5611 50.5057C75.902 50.4148 76.2372 50.3693 76.5668 50.3693C76.777 50.3693 77.0185 50.3949 77.2912 50.446C77.5668 50.4943 77.8324 50.5952 78.0881 50.7486C78.3466 50.902 78.5611 51.1335 78.7315 51.4432C78.902 51.7528 78.9872 52.1676 78.9872 52.6875V57H77.9815V56.1136H77.9304C77.8622 56.2557 77.7486 56.4077 77.5895 56.5696C77.4304 56.7315 77.2188 56.8693 76.9545 56.983C76.6903 57.0966 76.3679 57.1534 75.9872 57.1534ZM76.1406 56.25C76.5384 56.25 76.8736 56.1719 77.1463 56.0156C77.4219 55.8594 77.6293 55.6577 77.7685 55.4105C77.9105 55.1634 77.9815 54.9034 77.9815 54.6307V53.7102C77.9389 53.7614 77.8452 53.8082 77.7003 53.8509C77.5582 53.8906 77.3935 53.9261 77.206 53.9574C77.0213 53.9858 76.8409 54.0114 76.6648 54.0341C76.4915 54.054 76.3509 54.071 76.2429 54.0852C75.9815 54.1193 75.7372 54.1747 75.5099 54.2514C75.2855 54.3253 75.1037 54.4375 74.9645 54.5881C74.8281 54.7358 74.7599 54.9375 74.7599 55.1932C74.7599 55.5426 74.8892 55.8068 75.1477 55.9858C75.4091 56.1619 75.7401 56.25 76.1406 56.25ZM84.1978 57V50.4545H89.3455V57H88.3398V51.392H85.2035V57H84.1978ZM93.8413 57.1364C93.2504 57.1364 92.7319 56.9957 92.2859 56.7145C91.8427 56.4332 91.4961 56.0398 91.2461 55.5341C90.9989 55.0284 90.8754 54.4375 90.8754 53.7614C90.8754 53.0795 90.9989 52.4844 91.2461 51.9759C91.4961 51.4673 91.8427 51.0724 92.2859 50.7912C92.7319 50.5099 93.2504 50.3693 93.8413 50.3693C94.4322 50.3693 94.9492 50.5099 95.3924 50.7912C95.8384 51.0724 96.185 51.4673 96.4322 51.9759C96.6822 52.4844 96.8072 53.0795 96.8072 53.7614C96.8072 54.4375 96.6822 55.0284 96.4322 55.5341C96.185 56.0398 95.8384 56.4332 95.3924 56.7145C94.9492 56.9957 94.4322 57.1364 93.8413 57.1364ZM93.8413 56.233C94.2901 56.233 94.6594 56.1179 94.9492 55.8878C95.239 55.6577 95.4535 55.3551 95.5927 54.9801C95.7319 54.6051 95.8015 54.1989 95.8015 53.7614C95.8015 53.3239 95.7319 52.9162 95.5927 52.5384C95.4535 52.1605 95.239 51.8551 94.9492 51.6222C94.6594 51.3892 94.2901 51.2727 93.8413 51.2727C93.3924 51.2727 93.0231 51.3892 92.7333 51.6222C92.4435 51.8551 92.229 52.1605 92.0898 52.5384C91.9506 52.9162 91.881 53.3239 91.881 53.7614C91.881 54.1989 91.9506 54.6051 92.0898 54.9801C92.229 55.3551 92.4435 55.6577 92.7333 55.8878C93.0231 56.1179 93.3924 56.233 93.8413 56.233ZM97.6435 58.875V56.0625H98.1889C98.3224 55.9233 98.4375 55.7727 98.5341 55.6108C98.6307 55.4489 98.7145 55.2571 98.7855 55.0355C98.8594 54.8111 98.9219 54.5384 98.973 54.2173C99.0241 53.8935 99.0696 53.5028 99.1094 53.0455L99.331 50.4545H103.49V56.0625H104.496V58.875H103.49V57H98.6491V58.875H97.6435ZM99.331 56.0625H102.484V51.392H100.268L100.098 53.0455C100.027 53.7301 99.9389 54.3281 99.8338 54.8395C99.7287 55.3509 99.5611 55.7585 99.331 56.0625ZM106.581 50.4545L108.149 53.1307L109.717 50.4545H110.876L108.762 53.7273L110.876 57H109.717L108.149 54.4602L106.581 57H105.422L107.501 53.7273L105.422 50.4545H106.581ZM114.701 57.1364C114.11 57.1364 113.591 56.9957 113.145 56.7145C112.702 56.4332 112.355 56.0398 112.105 55.5341C111.858 55.0284 111.735 54.4375 111.735 53.7614C111.735 53.0795 111.858 52.4844 112.105 51.9759C112.355 51.4673 112.702 51.0724 113.145 50.7912C113.591 50.5099 114.11 50.3693 114.701 50.3693C115.292 50.3693 115.809 50.5099 116.252 50.7912C116.698 51.0724 117.044 51.4673 117.292 51.9759C117.542 52.4844 117.667 53.0795 117.667 53.7614C117.667 54.4375 117.542 55.0284 117.292 55.5341C117.044 56.0398 116.698 56.4332 116.252 56.7145C115.809 56.9957 115.292 57.1364 114.701 57.1364ZM114.701 56.233C115.15 56.233 115.519 56.1179 115.809 55.8878C116.098 55.6577 116.313 55.3551 116.452 54.9801C116.591 54.6051 116.661 54.1989 116.661 53.7614C116.661 53.3239 116.591 52.9162 116.452 52.5384C116.313 52.1605 116.098 51.8551 115.809 51.6222C115.519 51.3892 115.15 51.2727 114.701 51.2727C114.252 51.2727 113.882 51.3892 113.593 51.6222C113.303 51.8551 113.088 52.1605 112.949 52.5384C112.81 52.9162 112.74 53.3239 112.74 53.7614C112.74 54.1989 112.81 54.6051 112.949 54.9801C113.088 55.3551 113.303 55.6577 113.593 55.8878C113.882 56.1179 114.252 56.233 114.701 56.233ZM118.503 58.875V56.0625H119.048C119.182 55.9233 119.297 55.7727 119.393 55.6108C119.49 55.4489 119.574 55.2571 119.645 55.0355C119.719 54.8111 119.781 54.5384 119.832 54.2173C119.884 53.8935 119.929 53.5028 119.969 53.0455L120.19 50.4545H124.349V56.0625H125.355V58.875H124.349V57H119.509V58.875H118.503ZM120.19 56.0625H123.344V51.392H121.128L120.957 53.0455C120.886 53.7301 120.798 54.3281 120.693 54.8395C120.588 55.3509 120.42 55.7585 120.19 56.0625ZM129.434 57.1364C128.804 57.1364 128.26 56.9972 127.802 56.7188C127.348 56.4375 126.997 56.0455 126.75 55.5426C126.505 55.0369 126.383 54.4489 126.383 53.7784C126.383 53.108 126.505 52.517 126.75 52.0057C126.997 51.4915 127.341 51.0909 127.781 50.804C128.224 50.5142 128.741 50.3693 129.332 50.3693C129.673 50.3693 130.01 50.4261 130.342 50.5398C130.674 50.6534 130.977 50.8381 131.25 51.0938C131.522 51.3466 131.74 51.6818 131.902 52.0994C132.064 52.517 132.145 53.0312 132.145 53.642V54.0682H127.099V53.1989H131.122C131.122 52.8295 131.048 52.5 130.9 52.2102C130.755 51.9205 130.548 51.6918 130.278 51.5241C130.011 51.3565 129.696 51.2727 129.332 51.2727C128.931 51.2727 128.585 51.3722 128.292 51.571C128.002 51.767 127.779 52.0227 127.623 52.3381C127.467 52.6534 127.389 52.9915 127.389 53.3523V53.9318C127.389 54.4261 127.474 54.8452 127.645 55.1889C127.818 55.5298 128.058 55.7898 128.365 55.9688C128.672 56.1449 129.028 56.233 129.434 56.233C129.699 56.233 129.937 56.196 130.15 56.1222C130.366 56.0455 130.552 55.9318 130.708 55.7812C130.865 55.6278 130.985 55.4375 131.071 55.2102L132.042 55.483C131.94 55.8125 131.768 56.1023 131.527 56.3523C131.285 56.5994 130.987 56.7926 130.632 56.9318C130.277 57.0682 129.877 57.1364 129.434 57.1364ZM135.004 48.2727L134.919 54.5455H133.93L133.845 48.2727H135.004ZM134.424 57.0682C134.214 57.0682 134.034 56.9929 133.883 56.8423C133.733 56.6918 133.657 56.5114 133.657 56.3011C133.657 56.0909 133.733 55.9105 133.883 55.7599C134.034 55.6094 134.214 55.5341 134.424 55.5341C134.635 55.5341 134.815 55.6094 134.966 55.7599C135.116 55.9105 135.191 56.0909 135.191 56.3011C135.191 56.4403 135.156 56.5682 135.085 56.6847C135.017 56.8011 134.924 56.8949 134.808 56.9659C134.694 57.0341 134.566 57.0682 134.424 57.0682Z" fill="black"/>
</g>
<path d="M41.5 42.5L54.75 22.5L68 2.5L94.5 42.5" stroke="#A6722D"/>
<g filter="url(#filter2_d_0_1)">
<circle cx="68" cy="2.5" r="2.5" fill="black"/>
</g>
<circle cx="1.5" cy="1.5" r="1.5" transform="matrix(1 0 0 -1 40 44)" fill="#D9D9D9"/>
<circle cx="1.5" cy="1.5" r="1.5" transform="matrix(1 0 0 -1 93 44)" fill="#D9D9D9"/>
<defs>
<filter id="filter0_d_0_1" x="0" y="40" width="143" height="34" filterUnits="userSpaceOnUse" color-interpolation-filters="sRGB">
<feFlood flood-opacity="0" result="BackgroundImageFix"/>
<feColorMatrix in="SourceAlpha" type="matrix" values="0 0 0 0 0 0 0 0 0 0 0 0 0 0 0 0 0 0 127 0" result="hardAlpha"/>
<feOffset dy="4"/>
<feGaussianBlur stdDeviation="2"/>
<feComposite in2="hardAlpha" operator="out"/>
<feColorMatrix type="matrix" values="0 0 0 0 0 0 0 0 0 0 0 0 0 0 0 0 0 0 0.25 0"/>
<feBlend mode="normal" in2="BackgroundImageFix" result="effect1_dropShadow_0_1"/>
<feBlend mode="normal" in="SourceGraphic" in2="effect1_dropShadow_0_1" result="shape"/>
</filter>
<filter id="filter1_d_0_1" x="4.05682" y="48.2727" width="135.135" height="18.6023" filterUnits="userSpaceOnUse" color-interpolation-filters="sRGB">
<feFlood flood-opacity="0" result="BackgroundImageFix"/>
<feColorMatrix in="SourceAlpha" type="matrix" values="0 0 0 0 0 0 0 0 0 0 0 0 0 0 0 0 0 0 127 0" result="hardAlpha"/>
<feOffset dy="4"/>
<feGaussianBlur stdDeviation="2"/>
<feComposite in2="hardAlpha" operator="out"/>
<feColorMatrix type="matrix" values="0 0 0 0 0 0 0 0 0 0 0 0 0 0 0 0 0 0 0.25 0"/>
<feBlend mode="normal" in2="BackgroundImageFix" result="effect1_dropShadow_0_1"/>
<feBlend mode="normal" in="SourceGraphic" in2="effect1_dropShadow_0_1" result="shape"/>
</filter>
<filter id="filter2_d_0_1" x="61.5" y="0" width="13" height="13" filterUnits="userSpaceOnUse" color-interpolation-filters="sRGB">
<feFlood flood-opacity="0" result="BackgroundImageFix"/>
<feColorMatrix in="SourceAlpha" type="matrix" values="0 0 0 0 0 0 0 0 0 0 0 0 0 0 0 0 0 0 127 0" result="hardAlpha"/>
<feOffset dy="4"/>
<feGaussianBlur stdDeviation="2"/>
<feComposite in2="hardAlpha" operator="out"/>
<feColorMatrix type="matrix" values="0 0 0 0 0 0 0 0 0 0 0 0 0 0 0 0 0 0 0.25 0"/>
<feBlend mode="normal" in2="BackgroundImageFix" result="effect1_dropShadow_0_1"/>
<feBlend mode="normal" in="SourceGraphic" in2="effect1_dropShadow_0_1" result="shape"/>
</filter>
</defs>
</svg>
